<svg class="animated" id="freepik_stories-responsive" xmlns="http://www.w3.org/2000/svg" viewBox="0 0 750 500" version="1.1" xmlns:xlink="http://www.w3.org/1999/xlink" xmlns:svgjs="http://svgjs.com/svgjs"><style>svg#freepik_stories-responsive:not(.animated) .animable {opacity: 0;}svg#freepik_stories-responsive.animated #freepik--Screen--inject-14 {animation: 1.5s Infinite  linear wind;animation-delay: 0s;}svg#freepik_stories-responsive.animated #freepik--character-2--inject-14 {animation: 1.5s Infinite  linear wind;animation-delay: 0s;}svg#freepik_stories-responsive.animated #freepik--character-1--inject-14 {animation: 1.5s Infinite  linear wind;animation-delay: 0s;}            @keyframes wind {                0% {                    transform: rotate( 0deg );                }                25% {                    transform: rotate( 1deg );                }                75% {                    transform: rotate( -1deg );                }            }        </style><g id="freepik--Shadow--inject-14" class="animable" style="transform-origin: 375px 429.86px;"><ellipse cx="375" cy="429.86" rx="314.79" ry="19.52" style="fill: rgb(235, 235, 235); transform-origin: 375px 429.86px;" id="elx0ckk4u5die" class="animable"></ellipse></g><g id="freepik--Floor--inject-14" class="animable" style="transform-origin: 375px 399.74px;"><polygon points="50.72 399.74 131.79 399.5 212.86 399.41 375 399.24 537.14 399.41 618.21 399.5 699.28 399.74 618.21 399.99 537.14 400.07 375 400.24 212.86 400.07 131.79 399.98 50.72 399.74" style="fill: rgb(38, 50, 56); transform-origin: 375px 399.74px;" id="eluk5rw7cp38a" class="animable"></polygon></g><g id="freepik--device-3--inject-14" class="animable" style="transform-origin: 375.345px 240.03px;"><rect x="292.39" y="399.56" width="165.91" height="13.86" style="fill: rgb(219, 219, 219); transform-origin: 375.345px 406.49px;" id="elix1qndnxicf" class="animable"></rect><polygon points="438.55 399.57 312.15 399.57 315.36 375.51 315.52 374.38 315.82 372.12 315.96 370.99 316.27 368.73 316.31 368.38 316.42 367.59 316.73 365.33 316.88 364.2 319.12 347.39 431.57 347.39 433.69 363.25 433.8 364.01 434.15 366.64 434.24 367.4 434.38 368.38 434.6 370.03 434.7 370.79 435.05 373.43 435.15 374.19 438.55 399.57" style="fill: rgb(235, 235, 235); transform-origin: 375.35px 373.48px;" id="el9he2ud5bhr" class="animable"></polygon><polygon points="434.38 368.38 316.88 364.2 319.12 347.39 431.57 347.39 434.38 368.38" style="fill: rgb(219, 219, 219); transform-origin: 375.63px 357.885px;" id="ellnqpg1p7x" class="animable"></polygon><rect x="162.49" y="66.64" width="425.71" height="289.47" style="fill: rgb(38, 50, 56); transform-origin: 375.345px 211.375px;" id="elxreef0lkfdn" class="animable"></rect><rect x="162.49" y="313.41" width="425.71" height="42.7" style="fill: rgb(235, 235, 235); transform-origin: 375.345px 334.76px;" id="elqr9q7e3mn37" class="animable"></rect><path d="M382.28,331.89a7.06,7.06,0,1,1-7.06-7.05A7.06,7.06,0,0,1,382.28,331.89Z" style="fill: rgb(55, 71, 79); transform-origin: 375.22px 331.9px;" id="eldlajnehhdzv" class="animable"></path><rect x="182.14" y="85.46" width="386.42" height="207.87" style="fill: rgb(199, 199, 199); transform-origin: 375.35px 189.395px;" id="el33y3ld3unzb" class="animable"></rect></g><g id="freepik--Screen--inject-14" class="animable" style="transform-origin: 338.44px 209.415px;"><rect x="145.14" y="105.46" width="386.6" height="207.86" style="fill: rgb(255, 255, 255); transform-origin: 338.44px 209.39px;" id="eliodem5ap44b" class="animable"></rect><path d="M532.24,313.83H144.64V105h387.6Zm-386.6-1h385.6V106H145.64Z" style="fill: rgb(38, 50, 56); transform-origin: 338.44px 209.415px;" id="el5b879kx7ucw" class="animable"></path><rect x="145.14" y="105.46" width="386.6" height="8" style="fill: rgb(69, 90, 100); transform-origin: 338.44px 109.46px;" id="elszu5ozix3er" class="animable"></rect><path d="M151.22,109.46a2,2,0,1,1-2-2A2,2,0,0,1,151.22,109.46Z" style="fill: rgb(199, 199, 199); transform-origin: 149.22px 109.46px;" id="elcdhfq2co1xs" class="animable"></path><path d="M159.32,109.46a2,2,0,1,1-2-2A2,2,0,0,1,159.32,109.46Z" style="fill: rgb(255, 255, 255); transform-origin: 157.32px 109.46px;" id="el0uzr10p50m0r" class="animable"></path><path d="M167.42,109.46a2,2,0,1,1-2-2A2,2,0,0,1,167.42,109.46Z" style="fill: rgb(0, 175, 239); transform-origin: 165.42px 109.46px;" id="elfq7lp1gs1f" class="animable"></path><g id="elbg20yie5pc"><rect x="161.83" y="130.28" width="142.17" height="89.41" style="fill: rgb(0, 175, 239); transform-origin: 232.915px 174.985px; transform: rotate(180deg);" class="animable"></rect></g><g id="elurc2sv8p80k"><rect x="161.83" y="130.28" width="142.17" height="89.41" style="fill: rgb(255, 255, 255); opacity: 0.6; transform-origin: 232.915px 174.985px; transform: rotate(180deg);" class="animable"></rect></g><polygon points="224.94 200.42 304.01 200.42 264.48 152.3 224.94 200.42" style="fill: rgb(0, 175, 239); transform-origin: 264.475px 176.36px;" id="el1eqzvtpavch" class="animable"></polygon><g id="elifvxorlipt"><polygon points="224.94 200.42 304.01 200.42 264.48 152.3 224.94 200.42" style="opacity: 0.1; transform-origin: 264.475px 176.36px;" class="animable"></polygon></g><polygon points="193.97 200.47 259.25 200.47 226.61 169.13 193.97 200.47" style="fill: rgb(0, 175, 239); transform-origin: 226.61px 184.8px;" id="elhpyw4pjjn1j" class="animable"></polygon><rect x="161.83" y="200.42" width="142.17" height="19.26" style="fill: rgb(0, 175, 239); transform-origin: 232.915px 210.05px;" id="elwj91vecqcj8" class="animable"></rect><g id="elivlglxx9p1g"><circle cx="188.55" cy="155.69" r="10.1" style="fill: rgb(0, 175, 239); transform-origin: 188.55px 155.69px; transform: rotate(-22.35deg);" class="animable"></circle></g><g id="elhowt7p8dcjm"><rect x="324.45" y="231.82" width="79.02" height="64.2" style="fill: rgb(0, 175, 239); transform-origin: 363.96px 263.92px; transform: rotate(180deg);" class="animable"></rect></g><g id="elp38jqtycwte"><rect x="324.45" y="231.82" width="79.02" height="64.2" style="fill: rgb(255, 255, 255); opacity: 0.6; transform-origin: 363.96px 263.92px; transform: rotate(180deg);" class="animable"></rect></g><polygon points="346.69 282.19 403.46 282.19 375.08 247.64 346.69 282.19" style="fill: rgb(0, 175, 239); transform-origin: 375.075px 264.915px;" id="el57isotye9ie" class="animable"></polygon><g id="elevqli4ozbf"><polygon points="346.69 282.19 403.46 282.19 375.08 247.64 346.69 282.19" style="opacity: 0.1; transform-origin: 375.075px 264.915px;" class="animable"></polygon></g><polygon points="324.45 282.23 371.32 282.23 347.88 259.73 324.45 282.23" style="fill: rgb(0, 175, 239); transform-origin: 347.885px 270.98px;" id="eljvakpshzpcd" class="animable"></polygon><rect x="324.45" y="282.19" width="79.02" height="13.83" style="fill: rgb(0, 175, 239); transform-origin: 363.96px 289.105px;" id="elrbvb6i2llg" class="animable"></rect><circle cx="341.06" cy="248.8" r="7.6" style="fill: rgb(0, 175, 239); transform-origin: 341.06px 248.8px;" id="elz1uy1dtr99" class="animable"></circle><rect x="324.23" y="152.87" width="160.5" height="5.77" style="fill: rgb(166, 166, 166); transform-origin: 404.48px 155.755px;" id="eltl7tfuy3bp" class="animable"></rect><rect x="324.23" y="164.82" width="188.21" height="5.77" style="fill: rgb(219, 219, 219); transform-origin: 418.335px 167.705px;" id="elx2osm39jl7" class="animable"></rect><rect x="324.23" y="176.77" width="188.21" height="5.77" style="fill: rgb(219, 219, 219); transform-origin: 418.335px 179.655px;" id="el3dwrtqb9apd" class="animable"></rect><rect x="324.23" y="188.73" width="188.21" height="5.77" style="fill: rgb(219, 219, 219); transform-origin: 418.335px 191.615px;" id="el8ebq16woeei" class="animable"></rect><rect x="324.23" y="200.68" width="188.21" height="5.77" style="fill: rgb(219, 219, 219); transform-origin: 418.335px 203.565px;" id="elsx5itohjpf" class="animable"></rect><rect x="324.23" y="212.63" width="102.99" height="5.77" style="fill: rgb(219, 219, 219); transform-origin: 375.725px 215.515px;" id="elt91qwfc0bep" class="animable"></rect><rect x="410.76" y="231.65" width="89.43" height="5.69" style="fill: rgb(166, 166, 166); transform-origin: 455.475px 234.495px;" id="el5du2zcgmp9m" class="animable"></rect><rect x="410.76" y="243.42" width="101.68" height="5.69" style="fill: rgb(219, 219, 219); transform-origin: 461.6px 246.265px;" id="el1qua1vf5uj1" class="animable"></rect><rect x="410.76" y="255.2" width="101.68" height="5.69" style="fill: rgb(219, 219, 219); transform-origin: 461.6px 258.045px;" id="el08bst1tfkfjp" class="animable"></rect><rect x="410.76" y="266.97" width="101.68" height="5.69" style="fill: rgb(219, 219, 219); transform-origin: 461.6px 269.815px;" id="elyo76iwakhdf" class="animable"></rect><rect x="410.76" y="278.74" width="101.68" height="5.69" style="fill: rgb(219, 219, 219); transform-origin: 461.6px 281.585px;" id="els5vfuuoyau" class="animable"></rect><rect x="410.76" y="290.51" width="79.63" height="5.69" style="fill: rgb(219, 219, 219); transform-origin: 450.575px 293.355px;" id="elweh0u34zxrd" class="animable"></rect><rect x="324.23" y="130" width="188.21" height="16.97" style="fill: rgb(0, 175, 239); transform-origin: 418.335px 138.485px;" id="elqt15j0028pq" class="animable"></rect><rect x="161.83" y="231.65" width="142.17" height="16.97" style="fill: rgb(0, 175, 239); transform-origin: 232.915px 240.135px;" id="ell48xmys7dmn" class="animable"></rect><rect x="161.83" y="254.8" width="142.17" height="5.74" style="fill: rgb(219, 219, 219); transform-origin: 232.915px 257.67px;" id="elfny1lam6mm" class="animable"></rect><rect x="161.83" y="266.69" width="142.17" height="5.74" style="fill: rgb(219, 219, 219); transform-origin: 232.915px 269.56px;" id="elsbxzbgyfcpi" class="animable"></rect><rect x="161.83" y="278.57" width="142.17" height="5.74" style="fill: rgb(219, 219, 219); transform-origin: 232.915px 281.44px;" id="el4py4q23pn1q" class="animable"></rect><rect x="161.83" y="290.46" width="97.41" height="5.74" style="fill: rgb(219, 219, 219); transform-origin: 210.535px 293.33px;" id="el5aj1v1ls2xa" class="animable"></rect><rect x="522.96" y="113.46" width="8.78" height="199.87" style="fill: rgb(219, 219, 219); transform-origin: 527.35px 213.395px;" id="eld54c8rkz5m4" class="animable"></rect><path d="M527.34,218.06h0a2.27,2.27,0,0,1-2.27-2.27V117.71a2.27,2.27,0,0,1,2.27-2.27h0a2.27,2.27,0,0,1,2.27,2.27v98.08A2.27,2.27,0,0,1,527.34,218.06Z" style="fill: rgb(166, 166, 166); transform-origin: 527.34px 166.75px;" id="elf7rcaibnrei" class="animable"></path></g><g id="freepik--character-2--inject-14" class="animable" style="transform-origin: 601.759px 274.412px;"><path d="M547.84,421.3c1.79.58,53-.08,55-1.35.75-.47,1.08-7.94,1.23-17v-.29c0-1.86.06-3.78.06-5.72,0-.27,0-.54,0-.81.07-13-.14-26.59-.14-26.59l-34.28.35,1,26.34,0,1,.2,5.45,0,.56s-19.5,9-21.48,10.65S546,420.73,547.84,421.3Z" style="fill: rgb(255, 196, 192); transform-origin: 575.569px 395.526px;" id="el7c7eefqqp6d" class="animable"></path><path d="M563.24,406.81q.19-.06.21-.12Z" style="fill: rgb(0, 175, 239); transform-origin: 563.345px 406.75px;" id="el7qkbo7iid5i" class="animable"></path><path d="M547.84,421.3c1.79.58,53-.08,55-1.35.65-.42,1-6.37,1.17-14-9.39,2-45.79,9.33-46.78,6.21-.4-1.22,2.72-3.34,4.68-4.53-5.37,2.57-11.33,5.5-12.38,6.36C547.56,415.56,546,420.73,547.84,421.3Z" style="fill: rgb(0, 175, 239); transform-origin: 575.515px 413.731px;" id="el9o2fmwyrzbc" class="animable"></path><g id="ellwe878w1odm"><path d="M580,421.22c11.54-.27,21.94-.71,22.8-1.27.65-.42,1-6.37,1.17-14-1.33.28-3.21.67-5.46,1.12Z" style="opacity: 0.1; transform-origin: 591.985px 413.585px;" class="animable"></path></g><path d="M614.51,221.92s-7.69,86.61-9,93.22c-.29,1.5-.47,9.69-.58,20.21-.27,23-.11,64.37-.11,64.37H568.74s1.07-71.75,2.67-85,11.82-92.85,11.82-92.85Z" style="fill: rgb(55, 71, 79); transform-origin: 591.625px 310.795px;" id="el4rb0svh2lzo" class="animable"></path><path d="M570.37,393.42c5.64-.12,4-.16,9.66-.22,2.76,0,20.89-.18,23.47.25a.06.06,0,0,1,0,.11c-2.58.43-20.71.27-23.47.24-5.64-.05-4-.1-9.66-.21A.09.09,0,0,1,570.37,393.42Z" style="fill: rgb(38, 50, 56); transform-origin: 586.923px 393.508px;" id="elj8f666gjx3" class="animable"></path><path d="M598,352.41l.12-15.72c0-5.08,0-10.16.27-15.23.49-10.27,2.57-20.36,4.05-30.51s2.72-20.35,3.84-30.55c1.26-11.45,2.37-22.91,3.54-34.37,0-.08.13-.07.12,0-1.7,20.46-3.6,40.9-6.43,61.24q-1.05,7.58-2.31,15.14c-.84,5.1-1.68,10.2-2.08,15.35s-.46,10.12-.51,15.18q-.08,7.85-.16,15.71c-.11,11.63-.22,29.53-.34,41.17a.17.17,0,0,1-.34,0C597.84,379.43,597.92,362.78,598,352.41Z" style="fill: rgb(38, 50, 56); transform-origin: 603.855px 307.982px;" id="elmb111wtgqe" class="animable"></path><path d="M622.13,221.92s-15.31,86.61-16.57,93.22c-.29,1.5-.47,9.69-.58,20.21v0L587.75,221.92Z" style="fill: rgb(38, 50, 56); transform-origin: 604.94px 278.635px;" id="el64dgz4ch7j9" class="animable"></path><path d="M633.28,424.21c1.86-.29,47.29-24,48.45-26,.45-.76-2.62-7.58-6.57-15.71l-.13-.26c-.81-1.68-17-29-17-29l-27.94,16.4,15.49,27.62.27.49s-13.32,16.87-14.36,19.21S631.41,424.52,633.28,424.21Z" style="fill: rgb(255, 196, 192); transform-origin: 655.932px 388.732px;" id="elfqwetplmiji" class="animable"></path><path d="M633.28,424.21c1.87-.29,47.29-24,48.45-26,.38-.64-1.8-5.71-4.91-12.24-6.51,4.93-38,28.54-40.25,26.08-.48-.52-.12-1.74.52-3.06a89.33,89.33,0,0,0-5.64,7.94C630.43,419.22,631.42,424.51,633.28,424.21Z" style="fill: rgb(0, 175, 239); transform-origin: 656.407px 405.096px;" id="eln4c4mipj5ph" class="animable"></path><path d="M641.53,396.19l33.11-20.46s-38.3-54.8-38.48-59.67c-.28-7.24-3.75-37.11-6.66-61.29,0,0,5.53-13.1-4.82-32.88H583.2s2.78,18.82,7.54,30.76a54.63,54.63,0,0,1,9.22,4.21s4.13,53.92,4.29,60.65C604.55,330.81,641.53,396.19,641.53,396.19Z" style="fill: rgb(55, 71, 79); transform-origin: 628.92px 309.04px;" id="elbxf1teu4xc" class="animable"></path><path d="M639.5,388.55c4.78-3,3.37-2.2,8.18-5.15,2.35-1.44,17.83-10.88,20.26-11.84a.06.06,0,0,1,.06.1c-2,1.69-17.63,10.86-20,12.26-4.87,2.85-3.5,2-8.4,4.77A.08.08,0,0,1,639.5,388.55Z" style="fill: rgb(38, 50, 56); transform-origin: 653.741px 380.132px;" id="elgx4fa1ufasl" class="animable"></path><path d="M589.17,251.83a68.25,68.25,0,0,1,10.79,5,.12.12,0,0,1-.1.22c-3.63-1.56-7.34-3.06-10.89-4.82A.24.24,0,0,1,589.17,251.83Z" style="fill: rgb(38, 50, 56); transform-origin: 594.469px 254.445px;" id="elnkb2wjwbrmr" class="animable"></path><path d="M594.25,245.82c-.36-2.17-.65-4.34-.84-6.53a59.71,59.71,0,0,1,.14-12.25.11.11,0,0,1,.21,0,112.4,112.4,0,0,0,1,16.91c.41,2.7,1.77,6.75-1,7.16s-4.72-6.37-5.07-8.22a61.91,61.91,0,0,1-.61-16c0-.12.23-.15.23,0,0,4.32.25,8.12.61,12.16.17,1.87,1.68,12.22,4.92,11.47.55-.13.83-.66.91-1.48a13.3,13.3,0,0,0-.43-3.18" style="fill: rgb(38, 50, 56); transform-origin: 591.638px 238.958px;" id="elzq7fb6l24gg" class="animable"></path><path d="M593.69,250.76a18,18,0,0,1,.73,2.14,4.71,4.71,0,0,1,.3,1.77c0,.11-.16.12-.22.05a6.63,6.63,0,0,1-.76-1.72c-.24-.66-.51-1.32-.73-2A.36.36,0,0,1,593.69,250.76Z" style="fill: rgb(38, 50, 56); transform-origin: 593.855px 252.642px;" id="elmqzeq4aa0td" class="animable"></path><path d="M619.81,224.5a38.15,38.15,0,0,1,3.27,6.78,42.49,42.49,0,0,1,2,7.26c.27,1.24.38,2.49.54,3.75a36.53,36.53,0,0,1,.14,3.78,40.59,40.59,0,0,1-.78,7.53v-.1q1.68,15.66,3.23,31.33t3.1,31.34l.09,1,.05.49c0,.16,0,.35.08.41.19.47.56,1.1.86,1.65.65,1.13,1.33,2.25,2,3.37l4.15,6.69,8.4,13.32,16.87,26.61c-5.85-8.72-11.7-17.44-17.43-26.25-2.87-4.4-5.75-8.79-8.56-13.22l-4.19-6.68c-.69-1.12-1.37-2.24-2-3.39a16.27,16.27,0,0,1-1-1.83,1.83,1.83,0,0,1-.1-.54l0-.49-.1-1q-1.62-15.68-3.09-31.37t-3-31.38v-.1a39.05,39.05,0,0,0,.87-7.4c.08-1.25,0-2.49-.07-3.74s-.21-2.48-.44-3.71a41.39,41.39,0,0,0-1.83-7.27A38.55,38.55,0,0,0,619.81,224.5Z" style="fill: rgb(38, 50, 56); transform-origin: 641.81px 297.105px;" id="ely2rixk5qibc" class="animable"></path><path d="M591.06,139.22c-1,.23-5.26.21-7.67,4.39-2.27,4-2,15.18-2.27,17.66s-3.44,3.2-3.87,6.1c-.38,2.49,1.48,3.18,1.86,4.94.3,1.36-.86,3.58.62,5.47,1.35,1.72,3.32,1.11,4.6,1.55s2.34,3.17,4.67,3.68,4.09-1.77,5.28-1.89,3,3.38,6.86,2.63,4.61-4.17,6.14-5,5.69-.16,7.3-2.37,1.64-4.92,2.35-6,2.47-1.12,3.25-3.51-1.51-3.61-2-5.55c-.36-1.36.72-2.76-.37-4.77-1.51-2.76-5-1.75-6.67-4.57-1.32-2.21-4.64-12.11-11-13.92C595.64,136.81,591.06,139.22,591.06,139.22Z" style="fill: rgb(38, 50, 56); transform-origin: 598.77px 160.778px;" id="elh6genafj4cu" class="animable"></path><path d="M581.17,160.68a3.45,3.45,0,0,1-.89,1.41l-1.14,1.24a10.47,10.47,0,0,0-2,2.61,3.37,3.37,0,0,0,0,3,4.91,4.91,0,0,0,1,1.25,6,6,0,0,1,1.13,1.37,2.94,2.94,0,0,1,0,1.85c-.12.56-.26,1.09-.36,1.63a4,4,0,0,0,.45,3,2.27,2.27,0,0,0,1.18.93,4.16,4.16,0,0,0,1.58.16c.55,0,1.11-.1,1.67-.15a2.85,2.85,0,0,1,1.66.18,3.14,3.14,0,0,0-1.64,0c-.54.1-1.09.23-1.66.3a4.46,4.46,0,0,1-1.74-.08,2.78,2.78,0,0,1-1.46-1,4.31,4.31,0,0,1-.61-3.41c.09-.57.23-1.12.33-1.65a2.29,2.29,0,0,0,0-1.45c-.44-.85-1.53-1.53-2-2.64a3.78,3.78,0,0,1,.12-3.48,10.7,10.7,0,0,1,2.2-2.61l1.24-1.13A3.75,3.75,0,0,0,581.17,160.68Z" style="fill: rgb(38, 50, 56); transform-origin: 580.877px 170.095px;" id="elhy1fq87bto" class="animable"></path><path d="M606.37,143.15a47.19,47.19,0,0,1,3.15,5.12c.52.85,1,1.72,1.58,2.52a6.66,6.66,0,0,0,.93,1.09,1.07,1.07,0,0,0,.26.19.92.92,0,0,0,.28.15c.23.09.46.16.69.23a27.87,27.87,0,0,1,2.88,1,5.15,5.15,0,0,1,2.44,1.94,3.31,3.31,0,0,1,.48,1.53,4.08,4.08,0,0,1-.29,1.53,6.64,6.64,0,0,0-.62,2.9,6.21,6.21,0,0,1,.32-3,3.9,3.9,0,0,0,.19-1.42,2.89,2.89,0,0,0-.5-1.28,5,5,0,0,0-2.25-1.68c-.9-.37-1.86-.59-2.84-.89-.24-.08-.48-.16-.73-.26a2.23,2.23,0,0,1-.71-.46,7.47,7.47,0,0,1-1-1.21,25.64,25.64,0,0,1-1.54-2.62l-1.34-2.7A26.8,26.8,0,0,0,606.37,143.15Z" style="fill: rgb(38, 50, 56); transform-origin: 612.715px 152.25px;" id="el9y64ee1cyn" class="animable"></path><path d="M617.81,169.6a5.35,5.35,0,0,0-.42,2.07c-.07.71-.14,1.43-.25,2.15a10.12,10.12,0,0,1-.52,2.14,4.7,4.7,0,0,1-1.22,1.92,6,6,0,0,1-4.31,1c-.73,0-1.44-.14-2.15-.18a4.39,4.39,0,0,0-2.09.25,4.14,4.14,0,0,1,2.09-.56c.73,0,1.45,0,2.16,0a6.1,6.1,0,0,0,3.88-1,4.35,4.35,0,0,0,1.08-1.66,13,13,0,0,0,.6-2c.16-.69.29-1.4.42-2.11.08-.35.16-.7.26-1.05A2.05,2.05,0,0,1,617.81,169.6Z" style="fill: rgb(38, 50, 56); transform-origin: 612.33px 174.275px;" id="elwlzdf1co2bp" class="animable"></path><path d="M594.57,179.79c-6.15,3.29-28.5,12.6-37.12,10.44-6.19-1.55-13.72-8.58-22.41-19.13-3-3.66,10.56-21.55,13.77-17.59,3,3.64,13.72,17.83,16.66,19.41,2.2,1.18,14.37-2.08,28.45-1.32C601.64,172,602.83,175.36,594.57,179.79Z" style="fill: rgb(255, 196, 192); transform-origin: 567.434px 171.746px;" id="el2je9c3xyiie" class="animable"></path><path d="M558.74,193.58l11.61-21.34A213.44,213.44,0,0,1,594,170.72c11.28,0,13.82,3.3,1.35,9.85S567.18,193.66,558.74,193.58Z" style="fill: rgb(0, 175, 239); transform-origin: 581.19px 182.15px;" id="eljucna5k693e" class="animable"></path><path d="M558.74,193.58l11.61-21.34A213.44,213.44,0,0,1,594,170.72c11.28,0,13.82,3.3,1.35,9.85S567.18,193.66,558.74,193.58Z" style="fill: rgb(0, 175, 239); transform-origin: 581.19px 182.15px;" id="eljniq7vfb4vc" class="animable"></path><path d="M602,173.42a1.27,1.27,0,0,1-2,1.58,1.28,1.28,0,0,1,.2-1.78A1.26,1.26,0,0,1,602,173.42Zm-17,12a1.34,1.34,0,0,0-.32.39l1.38-.63A1.17,1.17,0,0,0,584.93,185.41Zm-7.1-8.89a1.26,1.26,0,1,0,1.78.2A1.26,1.26,0,0,0,577.83,176.52Zm10.75-1.32a1.27,1.27,0,1,0,1.78.2A1.28,1.28,0,0,0,588.58,175.2Zm-26,13.5a1.27,1.27,0,1,0,1.78.2A1.27,1.27,0,0,0,562.59,188.7Zm10.75-1.31a1.26,1.26,0,1,0,1.78.2A1.27,1.27,0,0,0,573.34,187.39Zm-6.25-9.15-1.09,2,0,.05a1.27,1.27,0,1,0,2-1.58A1.25,1.25,0,0,0,567.09,178.24Z" style="fill: rgb(255, 255, 255); transform-origin: 582.221px 181.953px;" id="elba3vhj2bnt6" class="animable"></path><path d="M572.93,173.81c-1.45,3-3,6-4.65,8.94q-1.24,2.2-2.55,4.38c-.89,1.47-1.87,2.89-2.79,4.34-.05.07-.15,0-.11-.08,1.72-2.91,3.34-5.89,5-8.83l5-8.81C572.86,173.7,573,173.75,572.93,173.81Z" style="fill: rgb(38, 50, 56); transform-origin: 567.885px 182.614px;" id="el9w1x6crk2xr" class="animable"></path><g id="el5kyll80a9zi"><path d="M558.74,193.58c8.44.09,24.11-6.46,36.58-13,7.15-3.75,9.37-6.43,7.82-8l-11.67,1.77Z" style="opacity: 0.1; transform-origin: 581.174px 183.08px;" class="animable"></path></g><path d="M536.31,172.45c-1.95-.95-8.79-5-9.57-6.93-1-2.52-1.3-10.45-.81-15.12s1.89-5.46,3.49-5.22.88,10.09.88,10.09-2.39-13.49-2.65-16.85-1.39-11.14,1.45-12c1.29-.36,2.31,1.85,2.31,1.85s-.59-3.29,1-3.63c1.87-.39,2.59,2.25,2.59,2.25s-.19-2,1.28-1.92c3.29.24,3.6,12.86,3.6,12.86s-3.64-10-.93-10.05c3.75,0,6.09,19.65,7.49,21.86s3,4.92,3,4.92Z" style="fill: rgb(255, 196, 192); transform-origin: 537.57px 148.525px;" id="elcj45gak6hq" class="animable"></path><path d="M528.59,145.17a1.46,1.46,0,0,1,1.21.57,4.13,4.13,0,0,1,.62,1.22,15.66,15.66,0,0,1,.59,2.77c.27,1.89.4,3.81.69,5.74a22.84,22.84,0,0,0,0-5.84,10.84,10.84,0,0,0-.77-2.86,3.57,3.57,0,0,0-.87-1.25A1.49,1.49,0,0,0,528.59,145.17Z" style="fill: rgb(38, 50, 56); transform-origin: 530.239px 150.287px;" id="el249i5zasge5" class="animable"></path><path d="M531.41,128.31c.19,1.38.43,2.74.68,4.11s.51,2.73.77,4.09l.82,4.07c.28,1.36.55,2.72.81,4.09a30.56,30.56,0,0,0-.31-4.17c-.16-1.39-.41-2.76-.67-4.12s-.57-2.72-.93-4.07S531.87,129.62,531.41,128.31Z" style="fill: rgb(38, 50, 56); transform-origin: 532.95px 136.49px;" id="el484k82kyuwd" class="animable"></path><path d="M538.09,141.85A26,26,0,0,0,538,138a37.22,37.22,0,0,0-.56-3.79,32.29,32.29,0,0,0-1-3.72,25.37,25.37,0,0,0-1.39-3.57c.29,1.25.63,2.47.91,3.71s.56,2.47.8,3.71.48,2.48.71,3.73S537.88,140.58,538.09,141.85Z" style="fill: rgb(38, 50, 56); transform-origin: 536.587px 134.385px;" id="elraimqlc6bsb" class="animable"></path><path d="M541.42,140.25a23.57,23.57,0,0,0-.65-6.15,23.08,23.08,0,0,0-2.1-5.81c.49,2,1,4,1.46,6S541,138.23,541.42,140.25Z" style="fill: rgb(38, 50, 56); transform-origin: 540.049px 134.27px;" id="elss8gi976rhf" class="animable"></path><path d="M625.59,222.73l-34-.81h-8.4l.24-18.32a.83.83,0,0,1,0-.27v-.58a18.22,18.22,0,0,1-2-3,11.4,11.4,0,0,1-1.47-5.83l0-.36c0-.25.1-.54.17-.86,0-.16.09-.34.15-.52l.12-.36c0-.1.07-.21.11-.3,2.28-6.26,10.58-18.36,11.35-19.09,3.46-3.31,7.76-4.33,12.52.12,8,7.44,16,32.69,19.44,44.28.08.25.16.51.23.75C625.07,220.75,625.59,222.73,625.59,222.73Z" style="fill: rgb(0, 175, 239); transform-origin: 602.774px 196.15px;" id="elccro78d5yvv" class="animable"></path><path d="M584.84,202.2a1.27,1.27,0,0,0-1.38,1.1v0a.83.83,0,0,0,0,.27,1.23,1.23,0,0,0,1.12,1.11,1.27,1.27,0,0,0,1.39-1.12A1.28,1.28,0,0,0,584.84,202.2Zm11.32,1.12a1.27,1.27,0,1,0,1.13,1.38A1.26,1.26,0,0,0,596.16,203.32Zm11.31,1.12a1.27,1.27,0,1,0-.24,2.52,1.27,1.27,0,0,0,.24-2.52Zm11.33,1.12a1.25,1.25,0,0,0-1.39,1.13,1.26,1.26,0,1,0,2.51.24A1.24,1.24,0,0,0,618.8,205.56Zm-29.21,6.38a1.26,1.26,0,1,0,1.14,1.38A1.26,1.26,0,0,0,589.59,211.94Zm11.32,1.11a1.27,1.27,0,1,0,1.13,1.38A1.26,1.26,0,0,0,600.91,213.05Zm11.32,1.12a1.27,1.27,0,0,0-.25,2.52,1.27,1.27,0,0,0,.25-2.52Zm11.69,2.65c-.14-.48-.29-1-.45-1.53a1.26,1.26,0,0,0-.17,2.52,1.31,1.31,0,0,0,.85-.24C624.08,217.33,624,217.07,623.92,216.82Zm-37.16-34a1.27,1.27,0,1,0,1.13,1.38A1.26,1.26,0,0,0,586.76,182.78Zm11.31,1.12a1.27,1.27,0,1,0,1.14,1.38A1.27,1.27,0,0,0,598.07,183.9ZM609.39,185a1.27,1.27,0,1,0,1.14,1.38A1.27,1.27,0,0,0,609.39,185Zm-28.78,6.49h0c0,.1-.07.2-.1.3l-.12.36c-.06.18-.11.36-.15.52-.07.32-.14.61-.17.86l0,.36a1.23,1.23,0,0,0,1.29-1.12A1.29,1.29,0,0,0,580.61,191.51Zm10.9,1a1.26,1.26,0,1,0,1.14,1.38A1.26,1.26,0,0,0,591.51,192.52Zm11.31,1.11h-.17a1.25,1.25,0,0,0-1.21,1.13,1.27,1.27,0,0,0,.46,1.09,1.2,1.2,0,0,0,.68.29,1.27,1.27,0,0,0,.24-2.52Zm11.33,1.12a1.27,1.27,0,1,0,1.13,1.39A1.27,1.27,0,0,0,614.15,194.75ZM593.42,173.1a1.26,1.26,0,1,0,1.14,1.39A1.28,1.28,0,0,0,593.42,173.1Zm11.32,1.12a1.26,1.26,0,0,0-.91,2.24,1.21,1.21,0,0,0,.67.27,1.26,1.26,0,1,0,.24-2.51Z" style="fill: rgb(255, 255, 255); transform-origin: 602.11px 195.454px;" id="eljft253i8n7l" class="animable"></path><path d="M590.71,200.76a44.93,44.93,0,0,1,6.36,1.73c1,.38,2,.8,3,1.25.49.22,1,.42,1.5.63a7.18,7.18,0,0,0,1.64.48,0,0,0,0,1,0,.08,10.9,10.9,0,0,1-1.61-.2,11.2,11.2,0,0,1-1.5-.44c-1-.37-2.07-.8-3.11-1.18-2.1-.78-4.19-1.55-6.34-2.17C590.57,200.91,590.61,200.74,590.71,200.76Z" style="fill: rgb(38, 50, 56); transform-origin: 596.909px 202.844px;" id="eljr38a7s94qo" class="animable"></path><path d="M585.13,202.14a49.26,49.26,0,0,1,5.43.29c.9.11,1.79.26,2.68.44l1.27.28c.47.11.92.28,1.38.38.05,0,0,.09,0,.08-.44-.09-.9-.1-1.34-.15l-1.35-.18-2.69-.34c-1.8-.24-3.59-.47-5.39-.65C585,202.28,585,202.14,585.13,202.14Z" style="fill: rgb(38, 50, 56); transform-origin: 590.472px 202.875px;" id="elqogegzth6wq" class="animable"></path><g id="elpb25f90ool"><path d="M596.94,221.92H583.23l.24-18.32a.83.83,0,0,1,0-.27v-.58a18.22,18.22,0,0,1-2-3c7-10,17.74-24.17,22.33-23.28.24,0,.53.08.67.27C608,181.57,599.45,216.23,596.94,221.92Z" style="opacity: 0.1; transform-origin: 593.391px 199.175px;" class="animable"></path></g><path d="M600.38,171.57c-.13.85-3.68,6.57-7.5,6.69-1.25,0-1.76-6.75-1.76-6.75L591,171l-2.13-6.9,7.83-5.94,1.14-.8s.46,1.93,1,4.33c0,.11.05.22.08.34s.07.26.09.39c.09.36.18.73.26,1.09s.12.55.17.85.11.58.17.87A46.48,46.48,0,0,1,600.38,171.57Z" style="fill: rgb(255, 196, 192); transform-origin: 594.625px 167.81px;" id="elvbbjssvgxxk" class="animable"></path><path d="M598.81,161.71A14.47,14.47,0,0,1,591,171l-2.13-6.9,7.83-5.94,1.14-.8S598.27,159.31,598.81,161.71Z" style="fill: rgb(38, 50, 56); transform-origin: 593.84px 164.18px;" id="el6bzpb8p6rl8" class="animable"></path><path d="M578.43,152.14c-2.43,12.43,4.74,15.29,7.42,15.82,2.43.47,10.78,1.77,14.48-10.34s-1.3-17.18-6.81-18.56S580.86,139.71,578.43,152.14Z" style="fill: rgb(255, 196, 192); transform-origin: 589.77px 153.466px;" id="elis2sj87d6z" class="animable"></path><path d="M580.6,150.34a8.63,8.63,0,0,0,.88,0,1.43,1.43,0,0,0,.88-.21.44.44,0,0,0,.09-.54,1.1,1.1,0,0,0-1-.44,1.61,1.61,0,0,0-1.11.39A.48.48,0,0,0,580.6,150.34Z" style="fill: rgb(38, 50, 56); transform-origin: 581.358px 149.748px;" id="elb7qujpdmc2d" class="animable"></path><path d="M589.17,151.79a8.18,8.18,0,0,1-.82-.32,1.4,1.4,0,0,1-.76-.49.44.44,0,0,1,.09-.54,1.11,1.11,0,0,1,1.13-.07,1.69,1.69,0,0,1,.92.74A.48.48,0,0,1,589.17,151.79Z" style="fill: rgb(38, 50, 56); transform-origin: 588.659px 151.028px;" id="eli4c879cn2h" class="animable"></path><path d="M586.66,154.51s.06.06.05.09c-.19.84-.27,1.84.44,2.27a0,0,0,0,1,0,0C586.22,156.6,586.34,155.28,586.66,154.51Z" style="fill: rgb(38, 50, 56); transform-origin: 586.788px 155.69px;" id="elyonimxm9f4" class="animable"></path><path d="M587.59,153.78c1.38.16.95,2.91-.33,2.76S586.43,153.64,587.59,153.78Z" style="fill: rgb(38, 50, 56); transform-origin: 587.465px 155.16px;" id="elgr0a8gd16i5" class="animable"></path><path d="M588.11,154c.21.19.4.5.69.58s.63-.17.89-.41c0,0,0,0,0,0-.07.53-.36,1-.94,1s-.82-.54-.87-1.09C587.91,154.06,588,153.93,588.11,154Z" style="fill: rgb(38, 50, 56); transform-origin: 588.785px 154.575px;" id="ely2vuv2j5p8" class="animable"></path><path d="M582,153.59s-.07,0-.08.07c-.1.85-.36,1.82-1.17,2,0,0,0,0,0,0C581.66,155.7,582,154.42,582,153.59Z" style="fill: rgb(38, 50, 56); transform-origin: 581.375px 154.625px;" id="elz6dym4gqh6s" class="animable"></path><path d="M581.32,152.59c-1.36-.31-1.87,2.42-.62,2.71S582.46,152.85,581.32,152.59Z" style="fill: rgb(38, 50, 56); transform-origin: 580.971px 153.943px;" id="elc19ssse4dnu" class="animable"></path><path d="M580.72,152.66c-.25.1-.51.33-.77.29s-.47-.37-.61-.69c0,0,0,0-.05,0-.11.52,0,1.1.44,1.29s.87-.2,1.09-.7C580.86,152.78,580.81,152.62,580.72,152.66Z" style="fill: rgb(38, 50, 56); transform-origin: 580.042px 152.929px;" id="elx6ibatmgu6g" class="animable"></path><path d="M585.66,161.52c-.23.18-.46.43-.78.43a2.38,2.38,0,0,1-.89-.32s-.06,0,0,0a1.17,1.17,0,0,0,1,.58.89.89,0,0,0,.76-.68S585.69,161.5,585.66,161.52Z" style="fill: rgb(38, 50, 56); transform-origin: 584.857px 161.862px;" id="el8oe53odf87n" class="animable"></path><path d="M582.62,157.85s-.39,1.24-.49,1.84c0,.05.13.11.34.15h0a2.89,2.89,0,0,0,2.94-.6c.06-.05,0-.13-.07-.1a4.36,4.36,0,0,1-2.73.31c0-.18.74-2.1.65-2.13a5.39,5.39,0,0,0-1.42.08c.74-2.61,1.89-5.08,2.59-7.68,0-.1-.11-.15-.15-.07a43.76,43.76,0,0,0-3.14,8.16C581.06,158.15,582.37,157.91,582.62,157.85Z" style="fill: rgb(38, 50, 56); transform-origin: 583.286px 154.81px;" id="ellufzenz37x7" class="animable"></path><path d="M599.12,157.86c-2-.2-1.74-4.48-1.74-4.48s-4.07-.71-4.37-6.81a9.13,9.13,0,0,0,.94,5.16s-7-2-9-8.58a16.07,16.07,0,0,0,1.6,4.56,8.5,8.5,0,0,1-3.89-4.08s-1.88,3.24-3,4c0,0,2.53-12.51,13.93-9.1,0,0,7.19,1.79,8.78,8S599.12,157.86,599.12,157.86Z" style="fill: rgb(38, 50, 56); transform-origin: 591.175px 147.901px;" id="elayk4pzsuaxa" class="animable"></path><path d="M599.46,162.2a2.24,2.24,0,0,1-.6.09,2.05,2.05,0,0,1-1.29-.36,1.77,1.77,0,0,1-.44-.42,2.32,2.32,0,0,1-.4-.76l1-3.29s3.18-3.63,4.85-2.46S601.64,161.65,599.46,162.2Z" style="fill: rgb(255, 196, 192); transform-origin: 599.921px 158.531px;" id="elsbmc8e4bfd" class="animable"></path><path d="M601.83,156.55a0,0,0,0,1,0,.06,5.37,5.37,0,0,0-3.14,3.07,1.19,1.19,0,0,1,1.8-.14s0,.09,0,.08a1.3,1.3,0,0,0-1.49.3,6.22,6.22,0,0,0-.82,1.09c-.08.13-.31,0-.25-.11l0,0C598.06,159,599.8,156.52,601.83,156.55Z" style="fill: rgb(38, 50, 56); transform-origin: 599.875px 158.807px;" id="elu4uyfo28ju" class="animable"></path><path d="M599.34,161.65a.58.58,0,0,1-.73.39.6.6,0,0,1-.39-.74.59.59,0,0,1,.74-.38A.58.58,0,0,1,599.34,161.65Z" style="fill: rgb(255, 255, 255); transform-origin: 598.782px 161.479px;" id="elte79kbuqpn" class="animable"></path><path d="M600.64,160.9a.41.41,0,0,1-.79-.25.41.41,0,0,1,.52-.27A.42.42,0,0,1,600.64,160.9Z" style="fill: rgb(255, 255, 255); transform-origin: 600.245px 160.773px;" id="elca1alkfg3fp" class="animable"></path><path d="M603.44,183c-5.92,17.05-9.83,31.91-16.69,35.46-10.29,5.31-36,6.22-42.19,3.93-2.69-1,1.52-22.82,4.57-22.57,3.66.29,28.57,1.16,30.13.11,2.67-1.79,6.09-7.56,17.38-20.71C605.4,169,605.72,176.39,603.44,183Z" style="fill: rgb(255, 196, 192); transform-origin: 574.17px 198.87px;" id="eltxs8oxuzsmh" class="animable"></path><path d="M556.86,203.1s-3.11-4.19-6-9.12c-1.59-2.75-4.75-7.22-6.85-8.71-3.13-2.22-17.67-9.5-19.51-6-1.67,3.15,11.61,7.82,11.61,7.82s-13-5.89-14.29-1.72,14.4,7.45,14.4,7.45-13.48-5.76-14.15-1.25c-.51,3.41,13.55,7.18,13.55,7.18s-11.62-4.87-12.29-1.38c-.74,3.85,12,8.15,12,8.15-.21,9.14,4.54,16.16,10.6,17.32C547,223,556.86,203.1,556.86,203.1Z" style="fill: rgb(255, 196, 192); transform-origin: 539.302px 200.587px;" id="elqf3dhgau988" class="animable"></path><path d="M540.77,188.84c-1.51-.75-3-1.52-4.58-2.13s-3.15-1.17-4.76-1.64a28.37,28.37,0,0,0-6.44-1.2,62.3,62.3,0,0,1,11,3.27c1.55.61,3.14,1.15,4.7,1.76C540.78,188.91,540.8,188.85,540.77,188.84Z" style="fill: rgb(38, 50, 56); transform-origin: 532.887px 186.386px;" id="ellcvja5udops" class="animable"></path><path d="M538.66,194.52c-2-.88-3.87-1.81-5.87-2.6s-3.94-1.35-6-2c-.16-.05-.14,0,0,.1,2,.73,3.81,1.55,5.81,2.3s4,1.42,6,2.24C538.67,194.58,538.69,194.53,538.66,194.52Z" style="fill: rgb(38, 50, 56); transform-origin: 532.675px 192.233px;" id="el2a1kdee4av5" class="animable"></path><path d="M537.72,199.72a48,48,0,0,0-9.27-3.29c-.15,0-.11.09,0,.14,3.1,1,5.54,1.82,9.17,3.25C537.73,199.84,537.79,199.75,537.72,199.72Z" style="fill: rgb(38, 50, 56); transform-origin: 533.051px 198.126px;" id="elmzclzn7049a" class="animable"></path><path d="M588.47,219.93l-7.68-23.05a212.76,212.76,0,0,1,15-18.31c7.72-8.22,11.84-7.86,8.12,5.73S594.29,213.81,588.47,219.93Z" style="fill: rgb(0, 175, 239); transform-origin: 593.043px 196.513px;" id="eltbiocxlhiap" class="animable"></path><path d="M603.29,179.48a1.26,1.26,0,1,1-1.66-.65A1.27,1.27,0,0,1,603.29,179.48Zm-10.41,28a1.27,1.27,0,1,0,1.66.65A1.27,1.27,0,0,0,592.88,207.49Zm-4.56-10.42a1.27,1.27,0,1,0,1.66.65A1.27,1.27,0,0,0,588.32,197.07ZM599,198.59a1.25,1.25,0,0,0-.65,1.65,1.28,1.28,0,0,0,.27.4c.27-.71.53-1.43.79-2.15A1,1,0,0,0,599,198.59Zm-4.56-10.42a1.26,1.26,0,1,0,1.67.65A1.26,1.26,0,0,0,594.48,188.17Z" style="fill: rgb(255, 255, 255); transform-origin: 595.473px 194.322px;" id="elxmes0h8cmf" class="animable"></path><path d="M590.64,183.25a11.91,11.91,0,0,1-1,1.94c-.12.21-.25.42-.38.63.86-1,1.73-2,2.6-3a.07.07,0,0,1,.12.08c-1.87,2.34-10.66,13.31-11.12,13.86,0,0,.37,1.27.4,1.3s-.13.08-.12,0-.66-1.56-.66-1.57c.29-.63,7.16-8.85,8-9.83,0-.06,0-.13.08-.18l.28-.51.54-.93a15.92,15.92,0,0,1,1.2-1.89S590.66,183.21,590.64,183.25Z" style="fill: rgb(38, 50, 56); transform-origin: 586.236px 190.446px;" id="el72xtv2cmjtf" class="animable"></path><path d="M583,195.55a22.57,22.57,0,0,1,1.12,2.51c.36.84.74,1.68,1.09,2.52.67,1.64,1.3,3.29,1.91,4.94a105.51,105.51,0,0,1,3.26,10.12c0,.07-.1.1-.12,0-1.31-3.35-2.46-6.76-3.69-10.14l-1.83-5c-.3-.83-.59-1.67-.9-2.5s-.7-1.65-.92-2.5C582.89,195.52,583,195.51,583,195.55Z" style="fill: rgb(38, 50, 56); transform-origin: 586.647px 205.602px;" id="elg72w8oxl2yi" class="animable"></path></g><g id="freepik--character-1--inject-14" class="animable" style="transform-origin: 109.081px 277.662px;"><path d="M154.24,423.47c-1.81.58-53.41-.07-55.36-1.35-.75-.47-1.09-8-1.24-17.1a2.62,2.62,0,0,1,0-.28c0-1.88-.06-3.81-.06-5.77,0-.27,0-.54,0-.81l2.5-26.77,34.52.34-3.4,26.52,0,1.05-.21,5.49,0,.56s19.64,9.09,21.63,10.72S156.05,422.89,154.24,423.47Z" style="fill: rgb(235, 148, 129); transform-origin: 126.324px 397.537px;" id="elq6ta4sw1o7" class="animable"></path><path d="M154.24,423.47c-1.81.58-53.41-.07-55.36-1.35-.75-.47-1.09-8-1.24-17.1a2.62,2.62,0,0,1,0-.28c0-1.88-.06-3.81-.06-5.77,0-.27,0-.54,0-.81l33.62.09,0,1.05-.21,5.49,0,.56s19.64,9.09,21.63,10.72S156.05,422.89,154.24,423.47Z" style="fill: rgb(235, 235, 235); transform-origin: 126.324px 410.922px;" id="eldgzg17kfckr" class="animable"></path><path d="M154.24,423.46c-.93.3-15,.28-28.65,0-2.76,0-5.5-.11-8.11-.18-9.77-.27-17.85-.67-18.6-1.16s-1.08-7.78-1.23-16.72c0-.13,0-.25,0-.38a2.81,2.81,0,0,0,0-.29h0l33.26,0,0,.57s19.64,9.08,21.63,10.71S156.05,422.89,154.24,423.46Z" style="fill: rgb(0, 175, 239); transform-origin: 126.349px 414.204px;" id="eli98zlk051v" class="animable"></path><path d="M153.68,421.46c-8.7-.32-43.8-.81-52.42-.47-.07,0-.07.05,0,.05,8.61.51,43.72.72,52.42.56C153.86,421.6,153.86,421.47,153.68,421.46Z" style="fill: rgb(38, 50, 56); transform-origin: 127.511px 421.264px;" id="elvf0ug7l7v8" class="animable"></path><path d="M134.63,404.93c-3.41-.68-7.6-.21-10.25,2.2-.1.09,0,.23.14.2a48.69,48.69,0,0,1,10.09-2A.22.22,0,0,0,134.63,404.93Z" style="fill: rgb(38, 50, 56); transform-origin: 129.544px 405.99px;" id="elbvc0gcoy08r" class="animable"></path><path d="M137.09,406.45c-3.42-.68-7.61-.21-10.26,2.2-.1.09,0,.23.14.2a48.78,48.78,0,0,1,10.1-2A.22.22,0,0,0,137.09,406.45Z" style="fill: rgb(38, 50, 56); transform-origin: 131.999px 407.51px;" id="elcl94p4tyeri" class="animable"></path><path d="M139.54,408c-3.42-.68-7.61-.21-10.26,2.2-.1.09,0,.23.15.2a48.69,48.69,0,0,1,10.09-2A.22.22,0,0,0,139.54,408Z" style="fill: rgb(38, 50, 56); transform-origin: 134.449px 409.06px;" id="elzdc1gm9xo8" class="animable"></path><g id="elybum57sfd9d"><path d="M125.59,423.46c-2.76,0-5.5-.11-8.11-.18-9.77-.27-17.85-.67-18.6-1.16s-1.08-7.78-1.23-16.72c0-.13,0-.25,0-.38a2.81,2.81,0,0,0,0-.29h0C102.23,407.93,118.29,418.61,125.59,423.46Z" style="opacity: 0.1; transform-origin: 111.62px 414.095px;" class="animable"></path></g><path d="M132.92,404.9H95.75s7.47-86.8,7.17-88.32c-.37-1.94-2.56-10.72-5.49-22.2-.91-3.59-1.9-7.44-2.93-11.44-2.77-10.8-5.83-22.6-8.49-32.87-4-15.38-7.12-27.33-7.12-27.33h31.5s3.67,11.64,8.3,26.78c7.54,24.6,17.62,58.46,18.62,66.7C138.92,329.51,132.92,404.9,132.92,404.9Z" style="fill: rgb(55, 71, 79); transform-origin: 108.237px 313.82px;" id="el66iy3njbuq5" class="animable"></path><path d="M131.27,398.56c-5.68-.11-4.05-.16-9.72-.21-2.78,0-21-.19-23.63.24a.06.06,0,0,0,0,.12c2.59.43,20.85.27,23.63.24,5.67-.06,4-.1,9.72-.22A.09.09,0,0,0,131.27,398.56Z" style="fill: rgb(38, 50, 56); transform-origin: 114.595px 398.656px;" id="elobsg99pcwho" class="animable"></path><path d="M109.92,311.29c-1.22-5.37-3-10.64-4.63-15.91q-4.85-16.08-9.73-32.13-2.44-8-4.91-16.05-1.25-4-2.5-8.09c-.83-2.64-1.77-5.25-2.52-7.91-.31-1.09-.47-.49-.08.88.78,2.77,1.56,5.55,2.37,8.31q2.4,8.22,4.83,16.42,4.84,16.33,9.76,32.64l4.92,16.35a67.88,67.88,0,0,1,2,7.91,36.37,36.37,0,0,1,.33,8.47c-.35,5.68-1,11.36-1.53,17s-1,11.37-1.58,17.06q-1.56,17-3.1,33.94c-.13,1.43-.26,2.87-.37,4.3,0,.48.69.45.74,0,1.22-11.18,2.16-22.41,3.21-33.61l3.12-33.45c.26-2.79.56-5.6.56-8.41A35.26,35.26,0,0,0,109.92,311.29Z" style="fill: rgb(38, 50, 56); transform-origin: 98.065px 312.733px;" id="elksfd0gobzq" class="animable"></path><path d="M106.81,222.74c-2.18,16.92-6.34,48.64-9.38,71.65-7.11-27.88-18.54-71.64-18.54-71.64Z" style="fill: rgb(38, 50, 56); transform-origin: 92.85px 258.565px;" id="elxjohnx0qzpk" class="animable"></path><path d="M114.2,424c-1.81.6-53.42.13-55.37-1.14-.75-.47-1.12-8-1.3-17.1,0-.09,0-.19,0-.28,0-1.88-.07-3.81-.08-5.77,0-.27,0-.54,0-.8-.13-13.14.82-26.78.82-26.78l33.73.22L91,398.84l0,1.05-.19,5.49,0,.56s19.67,9,21.67,10.64S116,423.39,114.2,424Z" style="fill: rgb(235, 148, 129); transform-origin: 86.2196px 398.194px;" id="el4t8oi7s4ax3" class="animable"></path><path d="M114.2,424c-1.81.6-53.42.13-55.37-1.14-.75-.47-1.12-8-1.3-17.1,0-.09,0-.19,0-.28,0-1.88-.07-3.81-.08-5.77,0-.27,0-.54,0-.8l33.61,0,0,1.05-.19,5.49,0,.56s19.67,9,21.67,10.64S116,423.39,114.2,424Z" style="fill: rgb(235, 235, 235); transform-origin: 86.2328px 411.584px;" id="el4xdyohj0wz6" class="animable"></path><path d="M114.2,424c-1.81.6-53.42.13-55.37-1.14-.75-.47-1.12-8-1.3-17.1,0-.09,0-.19,0-.28l33.3-.07,0,.56s19.67,9,21.67,10.64S116,423.39,114.2,424Z" style="fill: rgb(0, 175, 239); transform-origin: 86.2681px 414.834px;" id="elgub5cphzn0c" class="animable"></path><path d="M113.63,422c-8.7-.3-43.8-.65-52.42-.28-.07,0-.07.05,0,.05,8.61.48,43.72.55,52.42.37C113.81,422.11,113.81,422,113.63,422Z" style="fill: rgb(38, 50, 56); transform-origin: 87.4613px 421.896px;" id="elnpeqg6vs2pq" class="animable"></path><path d="M94.52,405.51c-3.41-.67-7.6-.18-10.24,2.23-.1.09,0,.24.14.2a48.74,48.74,0,0,1,10.09-2A.22.22,0,0,0,94.52,405.51Z" style="fill: rgb(38, 50, 56); transform-origin: 89.4641px 406.591px;" id="elh39lhdxjcin" class="animable"></path><path d="M97,407c-3.42-.67-7.61-.18-10.24,2.23-.11.1,0,.24.14.21a48.15,48.15,0,0,1,10.08-2A.22.22,0,0,0,97,407Z" style="fill: rgb(38, 50, 56); transform-origin: 91.9623px 408.085px;" id="elg1tmy4ukzy5" class="animable"></path><path d="M99.44,408.53c-3.42-.67-7.61-.18-10.25,2.23-.1.1,0,.24.15.21a47.9,47.9,0,0,1,10.08-2A.22.22,0,0,0,99.44,408.53Z" style="fill: rgb(38, 50, 56); transform-origin: 94.3996px 409.615px;" id="el32ukgdnhbpp" class="animable"></path><path d="M109.37,222.74s-.73,15.07-4.17,27c-.28,1-.58,2-.9,2.89a55.74,55.74,0,0,0-9.08,4.67s-.36,12.12-.72,25.64c-.4,15.12-.81,32-.72,35.56.31,13.38-1.66,86.95-1.66,86.95L55,405.61s6.69-82.16,6.65-87.06c-.08-7.88,1.79-42.7,3.23-68.09.88-15.65,1.6-27.71,1.6-27.71Z" style="fill: rgb(55, 71, 79); transform-origin: 82.185px 314.175px;" id="elgpdbnids2di" class="animable"></path><path d="M90.85,398.85c-5.68-.1-4-.15-9.73-.18-2.77,0-21-.09-23.62.35a.06.06,0,0,0,0,.12c2.6.42,20.85.17,23.63.14,5.67-.08,4-.12,9.72-.27A.08.08,0,0,0,90.85,398.85Z" style="fill: rgb(38, 50, 56); transform-origin: 74.185px 399.022px;" id="elyw2mcwo27k" class="animable"></path><path d="M69.57,228.14c-.68,20.73-1.4,41.46-2.32,62.18s-2.17,41.58-3.91,62.32c-1,11.58-1.88,27.88-3.13,39.45,0,.07.11.1.12,0,2.7-20.56,4.21-46,5.53-66.68s2.22-41.42,2.92-62.14c.4-11.72.7-23.44,1-35.17C69.84,228,69.58,228,69.57,228.14Z" style="fill: rgb(38, 50, 56); transform-origin: 64.9995px 310.092px;" id="elysno51kizh" class="animable"></path><path d="M105.84,251.74a68.84,68.84,0,0,0-10.62,5.57.12.12,0,0,0,.11.21c3.59-1.74,7.25-3.42,10.73-5.35A.24.24,0,0,0,105.84,251.74Z" style="fill: rgb(38, 50, 56); transform-origin: 100.682px 254.62px;" id="elur8knchgqlq" class="animable"></path><path d="M106.05,239c-.25,1.33-.57,2.63-.85,4s-.47,2.48-.79,3.7a6.37,6.37,0,0,1-1.73,3.11c-.48.45-1,.84-1.53,1.26-.27.22-.57.43-.86.66,0-.18.07-.36.1-.54.08-.5.17-1,.25-1.5.19-1.11.37-2.23.54-3.34.33-2.19.64-4.41,1.1-6.58,0-.08-.12-.12-.14,0-.55,2.15-1.15,4.28-1.62,6.45-.24,1.06-1.07,6.31-1.1,6.68s-.07.77-.09,1.15a4.66,4.66,0,0,0,0,1.18.1.1,0,0,0,.18,0h0a4.4,4.4,0,0,0,.33-1.14c.1-.37.18-.75.25-1.13l.06-.42c.52-.32,1-.73,1.48-1.08s1-.75,1.55-1.16a5.94,5.94,0,0,0,1.88-2.95,20.89,20.89,0,0,0,.62-3.77c.17-1.49.29-3,.5-4.48C106.2,238.9,106.07,238.86,106.05,239Z" style="fill: rgb(38, 50, 56); transform-origin: 102.737px 247.102px;" id="elqtroemx600s" class="animable"></path><path d="M95.65,175c3.21,5.1,22.23,28.9,30.84,25,8.24-3.74,16.44-12.16,20.09-16,2.71-2.86-10.24-20.16-11.92-18-4.67,6-11.13,13.87-12.44,13.51a95.12,95.12,0,0,1-20-9.75C95.39,165.4,90.32,166.46,95.65,175Z" style="fill: rgb(235, 148, 129); transform-origin: 120.189px 183.122px;" id="ellratddjayl" class="animable"></path><path d="M107.21,189.6l16-10.84s-18.73-10.07-25.07-11.47c-7.14-1.59-6.39,2.41-2.7,8.3S107.21,189.6,107.21,189.6Z" style="fill: rgb(55, 71, 79); transform-origin: 107.953px 178.27px;" id="elewm7ncy5uap" class="animable"></path><path d="M119,177.44c-.61.29-5.65,3.59-6.73,4.33s-5.53,3.73-6.58,4.58a.05.05,0,0,0,0,.09c1.19-.65,5.68-3.64,6.8-4.38s6-4.1,6.52-4.55C119.14,177.48,119.08,177.42,119,177.44Z" style="fill: rgb(38, 50, 56); transform-origin: 112.374px 181.938px;" id="elgbqrfdbwvt7" class="animable"></path><path d="M113.38,185.41l-6.17,4.18s-8.08-8.11-11.76-14c-2.69-4.31-3.82-7.61-1.45-8.45Z" style="fill: rgb(38, 50, 56); transform-origin: 103.044px 178.365px;" id="el7l57ht1ivtx" class="animable"></path><path d="M145.27,184.73c1.91-1,8.55-5.41,9.24-7.37.91-2.56.82-10.5.12-15.14s-2.14-5.36-3.72-5.05-.42,10.11-.42,10.11,1.76-13.58,1.88-16.94.87-11.2-2-11.88c-1.3-.31-2.22,1.94-2.22,1.94s.44-3.3-1.21-3.57c-1.88-.3-2.48,2.37-2.48,2.37s.1-2-1.37-1.87c-3.27.39-3,13-3,13s3.19-10.18.48-10.08c-3.75.13-3.87,21.67-5.17,23.94s-2.76,4.87-2.76,4.87Z" style="fill: rgb(235, 148, 129); transform-origin: 143.907px 160.768px;" id="elzwdz9ph2uoa" class="animable"></path><path d="M151.73,157.12a1.45,1.45,0,0,0-1.18.63A4.22,4.22,0,0,0,150,159a15.33,15.33,0,0,0-.46,2.79c-.19,1.91-.23,3.83-.44,5.77a23.21,23.21,0,0,1-.22-5.83,10.93,10.93,0,0,1,.64-2.9,3.87,3.87,0,0,1,.8-1.29A1.53,1.53,0,0,1,151.73,157.12Z" style="fill: rgb(38, 50, 56); transform-origin: 150.26px 162.323px;" id="el9h00yhtqkno" class="animable"></path><path d="M148.14,140.4c-.13,1.39-.31,2.77-.49,4.15s-.38,2.74-.58,4.11l-.64,4.11c-.21,1.37-.42,2.74-.61,4.12a30.68,30.68,0,0,1,.11-4.18c.1-1.39.29-2.77.49-4.14s.44-2.75.73-4.11S147.75,141.74,148.14,140.4Z" style="fill: rgb(38, 50, 56); transform-origin: 146.967px 148.645px;" id="elpbcgqw4uvy" class="animable"></path><path d="M142.09,154.24a27.35,27.35,0,0,1-.05-3.84,37.25,37.25,0,0,1,.39-3.81,33.91,33.91,0,0,1,.79-3.76,28.7,28.7,0,0,1,1.23-3.63c-.23,1.26-.52,2.49-.73,3.74s-.45,2.49-.64,3.75-.36,2.5-.53,3.76S142.24,153,142.09,154.24Z" style="fill: rgb(38, 50, 56); transform-origin: 143.223px 146.72px;" id="elwlrixrm05q" class="animable"></path><path d="M138.69,152.79a24.09,24.09,0,0,1,.36-6.17,23.48,23.48,0,0,1,1.83-5.9c-.39,2-.83,4-1.18,6S139,150.75,138.69,152.79Z" style="fill: rgb(38, 50, 56); transform-origin: 139.755px 146.755px;" id="el84nqo6afw1d" class="animable"></path><path d="M63.33,230.94c.12.13,51.52.46,52-.06.66-.74-10.75-56.48-16-63.37C98.19,166,91.1,164,87,167.37c-8.74,7.12-16.33,31.55-18.08,38.92C66,218.44,62.91,230.45,63.33,230.94Z" style="fill: rgb(0, 175, 239); transform-origin: 89.3245px 198.346px;" id="el29umlrqbm19" class="animable"></path><g id="elsbkn44qss6"><path d="M99.61,167.94H86.33l.66-.57a3.91,3.91,0,0,1,.41-.3H98.83a2.34,2.34,0,0,1,.48.44C99.41,167.63,99.5,167.78,99.61,167.94Z" style="opacity: 0.1; transform-origin: 92.97px 167.505px;" class="animable"></path></g><g id="el93grzio2t5g"><path d="M100.85,170.44H84l.73-.88h15.7Z" style="opacity: 0.1; transform-origin: 92.425px 170px;" class="animable"></path></g><g id="elxaw14oqi82"><path d="M101.81,172.94H82.24l.6-.88h18.65Z" style="opacity: 0.1; transform-origin: 92.025px 172.5px;" class="animable"></path></g><g id="el3khs5xjaenr"><path d="M102.66,175.43H80.72c.17-.3.34-.59.52-.88h21.13C102.47,174.84,102.56,175.13,102.66,175.43Z" style="opacity: 0.1; transform-origin: 91.69px 174.99px;" class="animable"></path></g><g id="el2pqz9hls6fs"><path d="M103.45,177.93H79.35c.15-.3.3-.59.47-.88h23.36C103.26,177.34,103.35,177.63,103.45,177.93Z" style="opacity: 0.1; transform-origin: 91.4px 177.49px;" class="animable"></path></g><g id="elwwkc38sho4"><path d="M104.18,180.43H78.1c.14-.3.28-.59.43-.88h25.4C104,179.84,104.1,180.13,104.18,180.43Z" style="opacity: 0.1; transform-origin: 91.14px 179.99px;" class="animable"></path></g><g id="elbh3ndiy2pz"><path d="M104.89,182.92H77c.13-.3.27-.58.4-.88h27.29C104.73,182.33,104.81,182.62,104.89,182.92Z" style="opacity: 0.1; transform-origin: 90.945px 182.48px;" class="animable"></path></g><g id="elkkvf6rgghb"><path d="M105.57,185.42H75.87c.13-.3.25-.59.38-.88h29.08Z" style="opacity: 0.1; transform-origin: 90.72px 184.98px;" class="animable"></path></g><g id="el5dpbpyo11mk"><path d="M106.23,187.92H74.86c.11-.3.23-.59.35-.88H106C106.07,187.33,106.15,187.62,106.23,187.92Z" style="opacity: 0.1; transform-origin: 90.545px 187.48px;" class="animable"></path></g><g id="el8t41fundt9a"><path d="M106.86,190.41h-33c.11-.3.22-.58.34-.88h32.4C106.71,189.83,106.79,190.11,106.86,190.41Z" style="opacity: 0.1; transform-origin: 90.36px 189.97px;" class="animable"></path></g><g id="eljh3sqniz6w"><path d="M107.49,192.91H73c.1-.3.21-.59.32-.88h34C107.34,192.32,107.41,192.61,107.49,192.91Z" style="opacity: 0.1; transform-origin: 90.245px 192.47px;" class="animable"></path></g><g id="elb7rgl5pksef"><path d="M108.1,195.4h-36l.3-.87h35.46Z" style="opacity: 0.1; transform-origin: 90.1px 194.965px;" class="animable"></path></g><g id="elwzht14s4lkm"><path d="M108.69,197.9H71.31c.09-.29.19-.58.28-.88h36.89Z" style="opacity: 0.1; transform-origin: 90px 197.46px;" class="animable"></path></g><g id="el9cid2eqyksi"><path d="M109.28,200.4H70.53c.09-.29.17-.59.27-.88h38.28C109.14,199.81,109.21,200.11,109.28,200.4Z" style="opacity: 0.1; transform-origin: 89.905px 199.96px;" class="animable"></path></g><g id="ely2s8nm7l4qg"><path d="M109.86,202.89H69.8c.08-.28.17-.57.25-.87h39.61C109.72,202.31,109.79,202.6,109.86,202.89Z" style="opacity: 0.1; transform-origin: 89.83px 202.455px;" class="animable"></path></g><g id="eln84zh41akzf"><path d="M110.42,205.39H69.13c.07-.28.15-.57.22-.88h40.87C110.28,204.8,110.35,205.09,110.42,205.39Z" style="opacity: 0.1; transform-origin: 89.775px 204.95px;" class="animable"></path></g><g id="elay4bbesy988"><path d="M111,207.89H68.52l.21-.88h42.05C110.84,207.3,110.91,207.6,111,207.89Z" style="opacity: 0.1; transform-origin: 89.76px 207.45px;" class="animable"></path></g><g id="elb5qsz0ahqw"><path d="M111.52,210.38H67.92l.21-.87h43.2C111.39,209.79,111.46,210.09,111.52,210.38Z" style="opacity: 0.1; transform-origin: 89.72px 209.945px;" class="animable"></path></g><g id="elfml91fouuc"><path d="M112.05,212.88H67.31l.21-.88h44.34C111.93,212.29,112,212.58,112.05,212.88Z" style="opacity: 0.1; transform-origin: 89.68px 212.44px;" class="animable"></path></g><g id="el6lg5waz0rtb"><path d="M112.57,215.37H66.71c.07-.28.14-.58.21-.87H112.4C112.46,214.79,112.52,215.09,112.57,215.37Z" style="opacity: 0.1; transform-origin: 89.64px 214.935px;" class="animable"></path></g><g id="elwhvrs3zxtls"><path d="M113.09,217.87h-47l.21-.88h46.6Z" style="opacity: 0.1; transform-origin: 89.59px 217.43px;" class="animable"></path></g><g id="el9exvy5kval"><path d="M113.59,220.37H65.49c.08-.29.15-.59.22-.88h47.7C113.47,219.78,113.54,220.08,113.59,220.37Z" style="opacity: 0.1; transform-origin: 89.54px 219.93px;" class="animable"></path></g><g id="elxblmjpln26a"><path d="M114.08,222.86H64.9c.07-.28.13-.57.21-.87h48.8C114,222.29,114,222.58,114.08,222.86Z" style="opacity: 0.1; transform-origin: 89.49px 222.425px;" class="animable"></path></g><g id="eliq7xcz88r1k"><path d="M114.55,225.36H64.32c.06-.29.13-.58.2-.88h49.86C114.44,224.78,114.49,225.07,114.55,225.36Z" style="opacity: 0.1; transform-origin: 89.435px 224.92px;" class="animable"></path></g><g id="el9zc0vvon4lt"><path d="M115,227.85H63.77c0-.27.11-.56.19-.87h50.87C114.89,227.29,114.93,227.57,115,227.85Z" style="opacity: 0.1; transform-origin: 89.385px 227.415px;" class="animable"></path></g><g id="eldiaw64ql4ew"><path d="M115.34,230.35h-52c0-.23.07-.52.13-.87h51.78C115.28,229.83,115.31,230.13,115.34,230.35Z" style="opacity: 0.1; transform-origin: 89.34px 229.915px;" class="animable"></path></g><path d="M93.07,163.64c-4.23-.47-9.28,3.15-5.54,8.05s7.8,5.85,10,5.16c2.65-.82,3.63-6.18,3-8.7S96.68,164.05,93.07,163.64Z" style="fill: rgb(38, 50, 56); transform-origin: 93.4685px 170.324px;" id="eluj6bhuut9s" class="animable"></path><path d="M96.55,175.09c-1.77.26-7-3-8.93-6.47-.14-.24.75-9.9.73-11.83,0-.4,12.16,2.8,12.16,2.8A30.74,30.74,0,0,0,99.42,167a4.89,4.89,0,0,0,.09.79.44.44,0,0,1,0,.13C99.8,169.45,99.14,174.7,96.55,175.09Z" style="fill: rgb(235, 148, 129); transform-origin: 94.0575px 165.93px;" id="el13wpvv360e1" class="animable"></path><path d="M89.13,156.84c.49,2.93,2.46,11.12,9.16,11.19a8,8,0,0,0,1.24-.08s0-.1,0-.13a5,5,0,0,1-.09-.8,31,31,0,0,1,1.08-7.43S91.83,157.31,89.13,156.84Z" style="fill: rgb(38, 50, 56); transform-origin: 94.825px 162.435px;" id="elcl4dg2j24b" class="animable"></path><path d="M86.28,142.73c-1.1,4.36,1.77,16.65,5,19.26,4.62,3.8,11.89,3.83,15-1.66,3-5.32-1-21.27-4.5-23.61C96.56,133.26,87.91,136.3,86.28,142.73Z" style="fill: rgb(235, 148, 129); transform-origin: 96.6878px 149.972px;" id="eluq3mq01tjyc" class="animable"></path><path d="M98.8,149.82s-.06.06,0,.09c.22.82.32,1.8-.36,2.25,0,0,0,.05,0,0C99.29,151.87,99.13,150.57,98.8,149.82Z" style="fill: rgb(38, 50, 56); transform-origin: 98.7529px 151.001px;" id="elsdo099mzrvo" class="animable"></path><path d="M97.86,149.13c-1.36.2-.85,2.9.41,2.71S99,149,97.86,149.13Z" style="fill: rgb(38, 50, 56); transform-origin: 98.0257px 150.487px;" id="eljq53yjnkna" class="animable"></path><path d="M103.39,148.9s.07,0,.08.06c.13.84.42,1.78,1.23,1.92,0,0,0,0,0,.05C103.75,151,103.38,149.72,103.39,148.9Z" style="fill: rgb(38, 50, 56); transform-origin: 104.045px 149.916px;" id="elc46lea30w2" class="animable"></path><path d="M104,147.89c1.33-.36,1.94,2.32.71,2.65S102.86,148.18,104,147.89Z" style="fill: rgb(38, 50, 56); transform-origin: 104.388px 149.212px;" id="elhp4mu8vk8ge" class="animable"></path><path d="M96.5,148.54c.35-.16.65-.37,1-.56a1.86,1.86,0,0,0,.89-.77.58.58,0,0,0-.23-.67,1.43,1.43,0,0,0-1.45.12,2.11,2.11,0,0,0-1,1.13A.61.61,0,0,0,96.5,148.54Z" style="fill: rgb(38, 50, 56); transform-origin: 97.0524px 147.486px;" id="elkuiazm9g6n" class="animable"></path><path d="M104.61,145.75a10.54,10.54,0,0,1-1.12-.08,1.78,1.78,0,0,1-1.13-.29.59.59,0,0,1-.1-.71,1.44,1.44,0,0,1,1.36-.53,2.16,2.16,0,0,1,1.41.56A.62.62,0,0,1,104.61,145.75Z" style="fill: rgb(38, 50, 56); transform-origin: 103.694px 144.936px;" id="el19sj413mp46" class="animable"></path><path d="M99.21,157.57c.24.16.49.39.8.36a2.25,2.25,0,0,0,.85-.38s.06,0,0,0a1.17,1.17,0,0,1-1,.65.9.9,0,0,1-.79-.62S99.18,157.55,99.21,157.57Z" style="fill: rgb(38, 50, 56); transform-origin: 99.9783px 157.875px;" id="el8p0nvg6p9y3" class="animable"></path><path d="M99.62,154.9a2.87,2.87,0,0,0,2.14.91,3.65,3.65,0,0,0,1-.14l.19-.06.18-.06a.23.23,0,0,0,.13-.22h0a.26.26,0,0,0,0-.08h0v-.07c-.11-.65-.35-1.61-.35-1.61.26.07,1.56.38,1.47,0a42.67,42.67,0,0,0-2.72-8.4.07.07,0,0,0-.14.05c.55,2.67,1.57,5.22,2.18,7.9a4.87,4.87,0,0,0-1.42-.16c-.09,0,.51,1.86.53,2.15v0a4,4,0,0,1-3.12-.37C99.61,154.78,99.56,154.85,99.62,154.9Z" style="fill: rgb(38, 50, 56); transform-origin: 101.989px 150.466px;" id="eljqtck9u0wso" class="animable"></path><path d="M102.35,155.41a3.43,3.43,0,0,1-1.16,1.3,1.5,1.5,0,0,1-.91.23c-.7-.05-.83-.65-.81-1.2a3.77,3.77,0,0,1,.15-.86A4.45,4.45,0,0,0,102.35,155.41Z" style="fill: rgb(38, 50, 56); transform-origin: 100.909px 155.912px;" id="elw3oyrz73l8" class="animable"></path><path d="M101.19,156.71a1.5,1.5,0,0,1-.91.23c-.7-.05-.83-.65-.81-1.2A1.6,1.6,0,0,1,101.19,156.71Z" style="fill: rgb(255, 156, 189); transform-origin: 100.329px 156.333px;" id="elyxmymyf8l3p" class="animable"></path><g id="elrov4ij024ip"><path d="M87,152.57c.78-.35,2-3.62,2.53-4.93s-.55-7.3-.83-8.65a9.06,9.06,0,0,0-2.48,4.41C85.8,145.39,86.18,149,87,152.57Z" style="fill: rgb(38, 50, 56); opacity: 0.2; transform-origin: 87.8609px 145.78px;" class="animable"></path></g><path d="M100.11,141.14a4.33,4.33,0,0,1-3.53,2.33,4.44,4.44,0,0,1-3.92-1.8s-.08,0-.06,0a4.4,4.4,0,0,0,4,2.12,4.5,4.5,0,0,0,3.61-2.64C100.23,141.13,100.14,141.08,100.11,141.14Z" style="fill: rgb(38, 50, 56); transform-origin: 96.4048px 142.454px;" id="elwhe5pf1xudg" class="animable"></path><path d="M93.31,131.72a6.81,6.81,0,0,0-4.88,4.38,4.92,4.92,0,0,0,.25,3.2s.11,0,.09,0A5.36,5.36,0,0,1,90.13,134a6.89,6.89,0,0,1,5.78-2.09,4.32,4.32,0,0,1,2.7,1.3c.07.07.24,0,.18-.11C97.77,131.72,95.51,131.16,93.31,131.72Z" style="fill: rgb(38, 50, 56); transform-origin: 93.5372px 135.403px;" id="elxtatbrp4xy" class="animable"></path><path d="M108.78,133.72a5.6,5.6,0,0,0-3-2.37c-1.72-.58-3.39,0-5,.52,0,0,0,.08,0,.07a7.58,7.58,0,0,1,4.33-.51,5.49,5.49,0,0,1,3.06,2,5.24,5.24,0,0,1-4.7,8.32c-.06,0-.08.09,0,.09a5.49,5.49,0,0,0,5.92-4.19A5.58,5.58,0,0,0,108.78,133.72Z" style="fill: rgb(38, 50, 56); transform-origin: 105.147px 136.489px;" id="elefrg8m2pfr9" class="animable"></path><path d="M86,146s-3.33-3.85-2-6.84c.78-1.69,4.48-2.33,4.48-2.33a6.75,6.75,0,0,1,3.58-3.76c2.91-1.4,7-.44,7-.44a6.27,6.27,0,0,1,5.61-1.39c4.3,1.3,5.14,7.2,1.74,9.93-2.39,1.92-6.58.38-6.58.38-.34.12-3.44,3.11-6.89.52,0,0-1.76,2.46-4,1.54A3.27,3.27,0,0,1,86,146Z" style="fill: rgb(38, 50, 56); transform-origin: 96.0972px 138.533px;" id="elm05o4l5wlc" class="animable"></path><path d="M97.71,154.78a3.76,3.76,0,1,1,3.17-5h0a3.77,3.77,0,0,1-3.17,5Zm-.68-7a2.82,2.82,0,0,0-.79.18,3.25,3.25,0,1,0,.79-.18Z" style="fill: rgb(0, 175, 239); transform-origin: 97.3351px 151.039px;" id="elhdw0s4x7hyt" class="animable"></path><path d="M106.12,152.91c-1.43.14-2.87-1.2-3.28-3.12a4.41,4.41,0,0,1,.22-2.73,2.47,2.47,0,0,1,1.71-1.53,2.49,2.49,0,0,1,2.2.68,4.48,4.48,0,0,1,1.33,2.4c.44,2-.43,3.94-1.94,4.26ZM105.07,146l-.19,0a2,2,0,0,0-1.37,1.24,4,4,0,0,0-.18,2.43c.38,1.75,1.69,3,2.93,2.69s1.93-1.91,1.55-3.66a4,4,0,0,0-1.17-2.13A2.08,2.08,0,0,0,105.07,146Z" style="fill: rgb(0, 175, 239); transform-origin: 105.566px 149.205px;" id="elr1z4x3lk67s" class="animable"></path><path d="M100.85,150.22l-.4-.31c.46-.59,1.61-1.5,2.71-.73l-.29.41C101.89,148.91,100.89,150.16,100.85,150.22Z" style="fill: rgb(0, 175, 239); transform-origin: 101.805px 149.552px;" id="elo7qq2hq09v" class="animable"></path><path d="M85.45,154.68l-.49-.13c.07-.23.63-2.22,1.69-2.64s6.95-1.17,7.23-1.2l.06.5a66.78,66.78,0,0,0-7.11,1.17C86.14,152.65,85.6,154.13,85.45,154.68Z" style="fill: rgb(0, 175, 239); transform-origin: 89.45px 152.695px;" id="elvfwlog10c5i" class="animable"></path><path d="M89.43,152.71S86.35,148.9,84.6,150s.76,6.78,3,7.43a2.17,2.17,0,0,0,2.82-1.36Z" style="fill: rgb(235, 148, 129); transform-origin: 87.2166px 153.683px;" id="el83h2pposo3k" class="animable"></path><path d="M85.36,151.62a0,0,0,0,0,0,.06,5.51,5.51,0,0,1,3.07,3.24,1.19,1.19,0,0,0-1.81-.2s0,.08,0,.07a1.33,1.33,0,0,1,1.5.37,6.55,6.55,0,0,1,.78,1.14c.08.13.32,0,.26-.11l0,0C89.09,154.24,87.42,151.68,85.36,151.62Z" style="fill: rgb(38, 50, 56); transform-origin: 87.2648px 153.987px;" id="el1lca7aooxtq" class="animable"></path><path d="M84,175.88c-.13,13.51,3.9,44.52,11,47.43,9.54,3.91,24.49,8.45,30.6,6.05,2.64-1,3.86-21.69.84-21.91-13.84-1-19.87-1.37-22.55-4.91-.64-.83-5.11-13.78-10.37-24C87.39,166.75,84.07,168.46,84,175.88Z" style="fill: rgb(235, 148, 129); transform-origin: 106.104px 200.015px;" id="elv8i3avuxiq" class="animable"></path><path d="M99.75,191.14,82.85,201s-1-21.49.52-27.89c1.69-7.21,5-4.77,8.76,1.17S99.75,191.14,99.75,191.14Z" style="fill: rgb(55, 71, 79); transform-origin: 91.1386px 184.836px;" id="el4h41gkz8x7i" class="animable"></path><path d="M97.66,188.52c-.64.26-5.93,3.29-7.06,4s-5.81,3.43-6.92,4.23c-.05,0,0,.11,0,.09,1.24-.58,6-3.34,7.13-4s6.34-3.78,6.86-4.2C97.76,188.56,97.7,188.51,97.66,188.52Z" style="fill: rgb(38, 50, 56); transform-origin: 90.6874px 192.681px;" id="elyjrqp1nrbo8" class="animable"></path><path d="M123.91,207.6s4.92-1.33,10.1-3.38c2.89-1.14,8-2.66,10.52-2.53,3.75.19,19.31,3.41,18.61,7.2-.63,3.42-13.65-1-13.65-1s13.53,3.33,12,7.32-15.55-3-15.55-3,13.82,3.74,11.6,7.61c-1.67,2.92-14.74-2.7-14.74-2.7s11.86,3.3,10.27,6.38c-1.77,3.4-14.15-1-14.15-1-5.37,7.15-13.26,9.65-18.61,6.87C119.46,228.86,123.91,207.6,123.91,207.6Z" style="fill: rgb(235, 148, 129); transform-origin: 141.682px 216.081px;" id="elcwt3d19c35" class="animable"></path><path d="M144.89,206.4c1.6.34,3.23.67,4.79,1.14s3.13,1,4.64,1.63a28,28,0,0,1,5.67,3A59.51,59.51,0,0,0,149.54,208c-1.57-.48-3.11-1-4.67-1.51C144.83,206.45,144.85,206.4,144.89,206.4Z" style="fill: rgb(38, 50, 56); transform-origin: 152.419px 209.285px;" id="eln8ebsmz4v9" class="animable"></path><path d="M143.07,212c2,.52,4.06,1,6.07,1.56s3.83,1.35,5.78,2.09c.15.06.07.12-.08.07-2-.66-3.86-1.12-5.84-1.76s-3.95-1.35-5.95-1.91C143,212.07,143,212,143.07,212Z" style="fill: rgb(38, 50, 56); transform-origin: 149.007px 213.869px;" id="eli18cwenywa" class="animable"></path><path d="M140.63,216.59a46.26,46.26,0,0,1,9.1,3.09c.15.06,0,.13-.12.08-3-1.09-5.35-2-9-3.06C140.56,216.68,140.57,216.57,140.63,216.59Z" style="fill: rgb(38, 50, 56); transform-origin: 145.185px 218.182px;" id="elfsldsog0bjp" class="animable"></path></g><g id="freepik--device-2--inject-14" class="animable" style="transform-origin: 652.9px 348.62px;"><path d="M689.78,265.07H616a7.53,7.53,0,0,0-7.46,7.6v151.9a7.54,7.54,0,0,0,7.46,7.6h73.79a7.54,7.54,0,0,0,7.47-7.6V272.67A7.54,7.54,0,0,0,689.78,265.07Zm2.8,154.8a7,7,0,0,1-6.68,7.23h-66a7,7,0,0,1-6.69-7.23V278.43c0-8.15,3-8.55,6.69-8.55h13.23c.76,0,1.39.88,1.39,2v.47c0,2.53,1.39,2.54,3.1,2.54h30.58c1.72,0,3.09,0,3.09-2.54v-.47c0-1.08.62-2,1.4-2H685.9c3.69,0,6.68,1.09,6.68,8.55Z" style="fill: rgb(38, 50, 56); transform-origin: 652.9px 348.62px;" id="elyru51uwbtuk" class="animable"></path><path d="M657.06,271.68h-8.34a.51.51,0,0,1-.52-.51h0a.52.52,0,0,1,.52-.52h8.34a.51.51,0,0,1,.51.52h0A.51.51,0,0,1,657.06,271.68Z" style="fill: rgb(255, 255, 255); transform-origin: 652.885px 271.165px;" id="elib3rmwa5or" class="animable"></path><path d="M692.58,278.43V419.87a7,7,0,0,1-6.68,7.23h-66a7,7,0,0,1-6.69-7.23V278.43c0-8.15,3-8.55,6.69-8.55h13.23c.76,0,1.39.88,1.39,2v.47c0,2.53,1.39,2.54,3.1,2.54h30.58c1.72,0,3.09,0,3.09-2.54v-.47c0-1.08.62-2,1.4-2H685.9C689.59,269.88,692.58,271,692.58,278.43Z" style="fill: rgb(255, 255, 255); transform-origin: 652.895px 348.49px;" id="elshekm2tqh1s" class="animable"></path><path d="M692.58,278.43V289H613.19V278.43c0-8.15,3-8.55,6.69-8.55h13.23c.77,0,1.39.88,1.39,2v.47c0,2.53,1.39,2.54,3.09,2.54h30.58c1.72,0,3.1,0,3.1-2.54v-.47c0-1.08.62-2,1.4-2H685.9C689.59,269.88,692.58,271,692.58,278.43Z" style="fill: rgb(0, 175, 239); transform-origin: 652.885px 279.44px;" id="elmet3i45icze" class="animable"></path><polygon points="620.71 283.83 618.37 281.63 620.71 279.43 621.08 279.82 619.14 281.63 621.08 283.44 620.71 283.83" style="fill: rgb(255, 255, 255); transform-origin: 619.725px 281.63px;" id="elpkpgecrv1t" class="animable"></polygon><path d="M685.42,284h-1.65v-.58a.08.08,0,0,0,0-.08.78.78,0,0,1-.18-.11.12.12,0,0,0-.1,0l-.51.29-.82-1.43.51-.29a.13.13,0,0,0,0-.09v-.2a.13.13,0,0,0,0-.09l-.51-.29.82-1.43.51.29a.09.09,0,0,0,.1,0,.78.78,0,0,1,.18-.11.08.08,0,0,0,0-.08v-.58h1.65v.58a.08.08,0,0,0,.05.08l.18.11a.09.09,0,0,0,.1,0l.5-.29.83,1.43-.51.29a.1.1,0,0,0,0,.09v.2a.1.1,0,0,0,0,.09l.51.29-.83,1.43-.51-.29s-.06,0-.09,0l-.18.11a.08.08,0,0,0-.05.08Zm-1.24-.41H685v-.17a.5.5,0,0,1,.27-.45l.15-.08a.49.49,0,0,1,.52,0l.15.09.42-.72-.16-.09a.49.49,0,0,1-.24-.46v-.16a.49.49,0,0,1,.24-.46l.16-.09-.42-.72-.15.09a.49.49,0,0,1-.52,0l-.15-.08a.5.5,0,0,1-.27-.45v-.17h-.83v.17a.51.51,0,0,1-.28.45l-.14.08a.49.49,0,0,1-.52,0l-.15-.09-.42.72.15.09a.5.5,0,0,1,.25.46v.16a.5.5,0,0,1-.25.46l-.15.09.42.72.15-.09a.49.49,0,0,1,.52,0l.14.08a.51.51,0,0,1,.28.45Zm.41-.76a1.22,1.22,0,1,1,1.23-1.22A1.22,1.22,0,0,1,684.59,282.85Zm0-2a.81.81,0,1,0,.82.81A.81.81,0,0,0,684.59,280.82Z" style="fill: rgb(255, 255, 255); transform-origin: 684.62px 281.61px;" id="elv78rgx79ayr" class="animable"></path><g id="freepik--u5Zjqx--inject-14" class="animable" style="transform-origin: 629.395px 273.47px;"><path d="M630.82,273.06l-.12.13-.08.07a1.72,1.72,0,0,0-1.23-.51,1.75,1.75,0,0,0-1.23.51l-.07-.07-.12-.13h0l.16-.14a1.87,1.87,0,0,1,.38-.24,2,2,0,0,1,.49-.17l.25,0h.38a1.82,1.82,0,0,1,.46.11l.31.14a1.94,1.94,0,0,1,.29.21l.13.12Z" style="fill: rgb(255, 255, 255); transform-origin: 629.395px 272.885px;" id="elui0y5k6uk1g" class="animable"></path><path d="M628.57,273.66l-.21-.2a1.46,1.46,0,0,1,2.06,0l-.2.2a1.17,1.17,0,0,0-1.65,0Z" style="fill: rgb(255, 255, 255); transform-origin: 629.39px 273.347px;" id="eljq3c9pzub8p" class="animable"></path><path d="M630,273.86l-.2.21a.58.58,0,0,0-.43-.18.58.58,0,0,0-.42.18c-.07-.07-.13-.14-.2-.2A.87.87,0,0,1,630,273.86Z" style="fill: rgb(255, 255, 255); transform-origin: 629.375px 273.835px;" id="elgdvb95vo30k" class="animable"></path><path d="M629.57,274.25a.18.18,0,1,1-.18-.18A.18.18,0,0,1,629.57,274.25Z" style="fill: rgb(255, 255, 255); transform-origin: 629.39px 274.25px;" id="elzjtzkkj0g5i" class="animable"></path></g><path d="M618.37,273.45a.52.52,0,0,1,.52-.53.53.53,0,0,1,.53.53.52.52,0,0,1-.53.52A.52.52,0,0,1,618.37,273.45Z" style="fill: rgb(255, 255, 255); transform-origin: 618.895px 273.445px;" id="elur6ovbbf4co" class="animable"></path><path d="M620,273.45a.53.53,0,1,1,1.06,0,.53.53,0,0,1-1.06,0Z" style="fill: rgb(255, 255, 255); transform-origin: 620.53px 273.45px;" id="elujeru73z0h" class="animable"></path><circle cx="622.21" cy="273.45" r="0.53" style="fill: rgb(255, 255, 255); transform-origin: 622.21px 273.45px;" id="elpgarbn18wwp" class="animable"></circle><path d="M623.34,273.45a.52.52,0,0,1,.52-.53.53.53,0,0,1,.53.53.52.52,0,0,1-.53.52A.52.52,0,0,1,623.34,273.45Z" style="fill: rgb(255, 255, 255); transform-origin: 623.865px 273.445px;" id="eljkaa963bbb" class="animable"></path><path d="M625,273.45a.52.52,0,0,1,.52-.53.53.53,0,0,1,.53.53.52.52,0,0,1-.53.52A.52.52,0,0,1,625,273.45Z" style="fill: rgb(255, 255, 255); transform-origin: 625.525px 273.445px;" id="elgdrw5dyjiev" class="animable"></path><path d="M686.62,274.59h-4.27v-2h4.27Zm-4.06-.21h3.86v-1.56h-3.86Z" style="fill: rgb(255, 255, 255); transform-origin: 684.485px 273.59px;" id="ellwxzi0sr2h" class="animable"></path><rect x="682.7" y="272.95" width="2.76" height="1.31" style="fill: rgb(255, 255, 255); transform-origin: 684.08px 273.605px;" id="eln0jecw5zk3l" class="animable"></rect><rect x="686.63" y="273.07" width="0.38" height="1.06" style="fill: rgb(255, 255, 255); transform-origin: 686.82px 273.6px;" id="elresa0aki13g" class="animable"></rect><polygon points="625.25 418.46 624.65 418.46 624.65 421.23 623.52 421.23 623.52 419.82 621.52 419.82 621.52 421.23 620.4 421.23 620.4 418.46 619.79 418.46 622.52 415.63 625.25 418.46" style="fill: rgb(235, 235, 235); transform-origin: 622.52px 418.43px;" id="elzyh73kab1x" class="animable"></polygon><rect x="679.4" y="415.64" width="6.58" height="0.94" style="fill: rgb(235, 235, 235); transform-origin: 682.69px 416.11px;" id="ell2ru1vk633" class="animable"></rect><rect x="679.4" y="417.96" width="6.58" height="0.94" style="fill: rgb(235, 235, 235); transform-origin: 682.69px 418.43px;" id="elatshvgv2w9c" class="animable"></rect><rect x="679.4" y="420.29" width="6.58" height="0.94" style="fill: rgb(235, 235, 235); transform-origin: 682.69px 420.76px;" id="elqzvu9gpiniq" class="animable"></rect><g id="elc7ty8svdv2s"><rect x="613.17" y="288.98" width="79.42" height="49.94" style="fill: rgb(0, 175, 239); transform-origin: 652.88px 313.95px; transform: rotate(180deg);" class="animable"></rect></g><g id="elgjr6jynb1rn"><rect x="613.17" y="288.98" width="79.42" height="49.94" style="fill: rgb(255, 255, 255); opacity: 0.6; transform-origin: 652.88px 313.95px; transform: rotate(180deg);" class="animable"></rect></g><polygon points="648.42 328.16 692.59 328.16 670.51 301.28 648.42 328.16" style="fill: rgb(0, 175, 239); transform-origin: 670.505px 314.72px;" id="el3vfvgw0bzs4" class="animable"></polygon><g id="ellb87vh9jhn"><polygon points="648.42 328.16 692.59 328.16 670.51 301.28 648.42 328.16" style="opacity: 0.1; transform-origin: 670.505px 314.72px;" class="animable"></polygon></g><polygon points="631.12 328.19 667.59 328.19 649.35 310.68 631.12 328.19" style="fill: rgb(0, 175, 239); transform-origin: 649.355px 319.435px;" id="el61sa9v4yiaa" class="animable"></polygon><rect x="613.17" y="328.16" width="79.42" height="10.76" style="fill: rgb(0, 175, 239); transform-origin: 652.88px 333.54px;" id="elh9ne8knro3r" class="animable"></rect><circle cx="628.09" cy="303.18" r="5.64" style="fill: rgb(0, 175, 239); transform-origin: 628.09px 303.18px;" id="eljy5vxjtacv" class="animable"></circle><rect x="620.23" y="344.82" width="65.3" height="7.8" style="fill: rgb(0, 175, 239); transform-origin: 652.88px 348.72px;" id="elllmk5yaq7f" class="animable"></rect><rect x="620.23" y="355.45" width="65.3" height="2.64" style="fill: rgb(219, 219, 219); transform-origin: 652.88px 356.77px;" id="elx8exfdjorwj" class="animable"></rect><rect x="620.23" y="360.91" width="65.3" height="2.64" style="fill: rgb(219, 219, 219); transform-origin: 652.88px 362.23px;" id="elkitucfwjrnb" class="animable"></rect><rect x="620.23" y="366.37" width="65.3" height="2.64" style="fill: rgb(219, 219, 219); transform-origin: 652.88px 367.69px;" id="elwjngcuy51c" class="animable"></rect><rect x="620.23" y="371.82" width="44.74" height="2.64" style="fill: rgb(219, 219, 219); transform-origin: 642.6px 373.14px;" id="elf5llcas9pn8" class="animable"></rect><rect x="620.23" y="387.61" width="55.68" height="2" style="fill: rgb(166, 166, 166); transform-origin: 648.07px 388.61px;" id="elglvm4q9stk" class="animable"></rect><rect x="620.23" y="391.76" width="65.3" height="2" style="fill: rgb(219, 219, 219); transform-origin: 652.88px 392.76px;" id="elmcdgvn8yfwr" class="animable"></rect><rect x="620.23" y="395.9" width="65.3" height="2" style="fill: rgb(219, 219, 219); transform-origin: 652.88px 396.9px;" id="elyv1jk0o1wch" class="animable"></rect><rect x="620.23" y="400.05" width="65.3" height="2" style="fill: rgb(219, 219, 219); transform-origin: 652.88px 401.05px;" id="elv5aiyrv257l" class="animable"></rect><rect x="620.23" y="404.2" width="65.3" height="2" style="fill: rgb(219, 219, 219); transform-origin: 652.88px 405.2px;" id="el473439fva3s" class="animable"></rect><rect x="620.23" y="408.34" width="35.73" height="2" style="fill: rgb(219, 219, 219); transform-origin: 638.095px 409.34px;" id="elakygkcm2g8" class="animable"></rect><rect x="620.23" y="379.67" width="65.3" height="5.89" style="fill: rgb(0, 175, 239); transform-origin: 652.88px 382.615px;" id="elwid33bqtoe" class="animable"></rect></g><g id="freepik--device-1--inject-14" class="animable" style="transform-origin: 218.4px 348.085px;"><path d="M344.05,275.68V420.49a11.78,11.78,0,0,1-11.87,11.68H104.63a11.8,11.8,0,0,1-11.88-11.68V275.68A11.78,11.78,0,0,1,104.63,264H332.18A11.77,11.77,0,0,1,344.05,275.68Z" style="fill: rgb(69, 90, 100); transform-origin: 218.4px 348.085px;" id="eldq37dusxjmk" class="animable"></path><rect x="110.5" y="271.11" width="216.3" height="153.77" style="fill: rgb(255, 255, 255); transform-origin: 218.65px 347.995px;" id="eltz991ngnmcs" class="animable"></rect><g id="el2o27cfkhfyg"><rect x="249.77" y="367.94" width="64.16" height="44.93" style="fill: rgb(235, 235, 235); transform-origin: 281.85px 390.405px; transform: rotate(180deg);" class="animable"></rect></g><path d="M257.26,380.72a5.32,5.32,0,1,0,5.32-5.32A5.32,5.32,0,0,0,257.26,380.72Z" style="fill: rgb(219, 219, 219); transform-origin: 262.58px 380.72px;" id="el2iqv7p40yeu" class="animable"></path><polygon points="278.25 403.19 313.93 403.19 296.09 379.01 278.25 403.19" style="fill: rgb(199, 199, 199); transform-origin: 296.09px 391.1px;" id="el79b071vei5w" class="animable"></polygon><polygon points="264.27 403.21 293.73 403.21 279 387.47 264.27 403.21" style="fill: rgb(219, 219, 219); transform-origin: 279px 395.34px;" id="elsvi1gduun3b" class="animable"></polygon><rect x="249.77" y="403.19" width="64.16" height="9.68" style="fill: rgb(219, 219, 219); transform-origin: 281.85px 408.03px;" id="elnuicryc0ruq" class="animable"></rect><rect x="227.6" y="281.83" width="86.33" height="16.41" style="fill: rgb(0, 175, 239); transform-origin: 270.765px 290.035px;" id="elpf8nlfpeow8" class="animable"></rect><rect x="227.6" y="304.48" width="86.33" height="2.3" style="fill: rgb(219, 219, 219); transform-origin: 270.765px 305.63px;" id="elk9kgjh8niyi" class="animable"></rect><rect x="227.6" y="309.88" width="86.33" height="2.3" style="fill: rgb(219, 219, 219); transform-origin: 270.765px 311.03px;" id="el1w5x2j7kk96" class="animable"></rect><rect x="227.6" y="315.29" width="86.33" height="2.3" style="fill: rgb(219, 219, 219); transform-origin: 270.765px 316.44px;" id="elfc2ck27fnzl" class="animable"></rect><rect x="227.6" y="320.69" width="86.33" height="2.3" style="fill: rgb(219, 219, 219); transform-origin: 270.765px 321.84px;" id="el6rp8vyp8fl8" class="animable"></rect><rect x="227.6" y="326.09" width="86.33" height="2.3" style="fill: rgb(219, 219, 219); transform-origin: 270.765px 327.24px;" id="el800taga3nm" class="animable"></rect><rect x="227.6" y="331.49" width="86.33" height="2.3" style="fill: rgb(219, 219, 219); transform-origin: 270.765px 332.64px;" id="elwx4w4gqyj3" class="animable"></rect><rect x="227.6" y="336.9" width="49.63" height="2.3" style="fill: rgb(219, 219, 219); transform-origin: 252.415px 338.05px;" id="elj1cj9cpdmb" class="animable"></rect><rect x="154.3" y="400.36" width="86.33" height="2.3" style="fill: rgb(219, 219, 219); transform-origin: 197.465px 401.51px;" id="elkozgyqgzha" class="animable"></rect><rect x="154.3" y="367.94" width="86.33" height="2.3" style="fill: rgb(219, 219, 219); transform-origin: 197.465px 369.09px;" id="elbg6j5g4qw97" class="animable"></rect><rect x="154.3" y="373.35" width="86.33" height="2.3" style="fill: rgb(219, 219, 219); transform-origin: 197.465px 374.5px;" id="el0mytxe6dxya" class="animable"></rect><rect x="154.3" y="378.75" width="86.33" height="2.3" style="fill: rgb(219, 219, 219); transform-origin: 197.465px 379.9px;" id="elwjdzlag4z3l" class="animable"></rect><rect x="154.3" y="384.15" width="58.88" height="2.3" style="fill: rgb(219, 219, 219); transform-origin: 183.74px 385.3px;" id="eluu6kmo0s5k" class="animable"></rect><rect x="154.3" y="394.96" width="86.33" height="2.3" style="fill: rgb(219, 219, 219); transform-origin: 197.465px 396.11px;" id="el4x8bhkj0hsf" class="animable"></rect><rect x="154.3" y="405.76" width="58.88" height="2.3" style="fill: rgb(219, 219, 219); transform-origin: 183.74px 406.91px;" id="elrfeqyyjcwpa" class="animable"></rect><rect x="123.36" y="356.53" width="190.57" height="5.43" style="fill: rgb(69, 90, 100); transform-origin: 218.645px 359.245px;" id="el0c1crtc38wa" class="animable"></rect><rect x="123.36" y="367.94" width="24.67" height="44.93" style="fill: rgb(0, 175, 239); transform-origin: 135.695px 390.405px;" id="el24nztrkgrsf" class="animable"></rect><g id="el28nhw75yqxr"><rect x="249.77" y="367.94" width="64.16" height="44.93" style="fill: rgb(0, 175, 239); transform-origin: 281.85px 390.405px; transform: rotate(180deg);" class="animable"></rect></g><g id="el4k4bq32dtto"><rect x="249.77" y="367.94" width="64.16" height="44.93" style="fill: rgb(255, 255, 255); opacity: 0.6; transform-origin: 281.85px 390.405px; transform: rotate(180deg);" class="animable"></rect></g><path d="M256.93,379.9a5.32,5.32,0,1,0,5.32-5.32A5.32,5.32,0,0,0,256.93,379.9Z" style="fill: rgb(0, 175, 239); transform-origin: 262.25px 379.9px;" id="elz0lq870ij9b" class="animable"></path><polygon points="278.25 403.19 313.93 403.19 296.09 379.01 278.25 403.19" style="fill: rgb(0, 175, 239); transform-origin: 296.09px 391.1px;" id="elak7agtjbiru" class="animable"></polygon><g id="el3s9db2ichk4"><polygon points="278.25 403.19 313.93 403.19 296.09 379.01 278.25 403.19" style="opacity: 0.1; transform-origin: 296.09px 391.1px;" class="animable"></polygon></g><polygon points="264.27 403.21 293.73 403.21 279 387.47 264.27 403.21" style="fill: rgb(0, 175, 239); transform-origin: 279px 395.34px;" id="elfrdkdkzidht" class="animable"></polygon><rect x="249.77" y="403.19" width="64.17" height="9.68" style="fill: rgb(0, 175, 239); transform-origin: 281.855px 408.03px;" id="elvs34938yuxg" class="animable"></rect><g id="el3ip13mzxxt"><rect x="123.36" y="281.83" width="95.95" height="67.2" style="fill: rgb(0, 175, 239); transform-origin: 171.335px 315.43px; transform: rotate(180deg);" class="animable"></rect></g><g id="elzwuq08dbx9"><rect x="123.36" y="281.83" width="95.95" height="67.2" style="fill: rgb(255, 255, 255); opacity: 0.6; transform-origin: 171.335px 315.43px; transform: rotate(180deg);" class="animable"></rect></g><path d="M134.58,300.93a7.95,7.95,0,1,0,7.95-7.95A8,8,0,0,0,134.58,300.93Z" style="fill: rgb(0, 175, 239); transform-origin: 142.53px 300.93px;" id="elyls0sw1p39q" class="animable"></path><polygon points="165.96 334.55 219.32 334.55 192.64 298.39 165.96 334.55" style="fill: rgb(0, 175, 239); transform-origin: 192.64px 316.47px;" id="el4454k5g2z81" class="animable"></polygon><g id="elxbkkuqny9o"><polygon points="165.96 334.55 219.32 334.55 192.64 298.39 165.96 334.55" style="opacity: 0.1; transform-origin: 192.64px 316.47px;" class="animable"></polygon></g><polygon points="145.06 334.58 189.11 334.58 167.08 311.03 145.06 334.58" style="fill: rgb(0, 175, 239); transform-origin: 167.085px 322.805px;" id="elo2pokj43o4q" class="animable"></polygon><rect x="123.36" y="334.55" width="95.95" height="14.48" style="fill: rgb(0, 175, 239); transform-origin: 171.335px 341.79px;" id="el17gy7d2xrum" class="animable"></rect><rect x="101.81" y="329.8" width="2.61" height="36.59" rx="1.14" style="fill: rgb(38, 50, 56); transform-origin: 103.115px 348.095px;" id="elbeabbevq0c9" class="animable"></rect><path d="M341,348.1a4.74,4.74,0,1,1-4.74-4.74A4.74,4.74,0,0,1,341,348.1Z" style="fill: rgb(38, 50, 56); transform-origin: 336.26px 348.1px;" id="elfdsrjmirnpg" class="animable"></path></g><defs>     <filter id="active" height="200%">         <feMorphology in="SourceAlpha" result="DILATED" operator="dilate" radius="2"></feMorphology>                <feFlood flood-color="#32DFEC" flood-opacity="1" result="PINK"></feFlood>        <feComposite in="PINK" in2="DILATED" operator="in" result="OUTLINE"></feComposite>        <feMerge>            <feMergeNode in="OUTLINE"></feMergeNode>            <feMergeNode in="SourceGraphic"></feMergeNode>        </feMerge>    </filter>    <filter id="hover" height="200%">        <feMorphology in="SourceAlpha" result="DILATED" operator="dilate" radius="2"></feMorphology>                <feFlood flood-color="#ff0000" flood-opacity="0.5" result="PINK"></feFlood>        <feComposite in="PINK" in2="DILATED" operator="in" result="OUTLINE"></feComposite>        <feMerge>            <feMergeNode in="OUTLINE"></feMergeNode>            <feMergeNode in="SourceGraphic"></feMergeNode>        </feMerge>            <feColorMatrix type="matrix" values="0   0   0   0   0                0   1   0   0   0                0   0   0   0   0                0   0   0   1   0 "></feColorMatrix>    </filter></defs></svg>